<?xml version="1.0" encoding="utf-8"?>
<!-- Generator: Adobe Illustrator 22.0.0, SVG Export Plug-In . SVG Version: 6.00 Build 0)  -->
<svg version="1.1" id="Capa_1" xmlns="http://www.w3.org/2000/svg" xmlns:xlink="http://www.w3.org/1999/xlink" x="0px" y="0px"
	 viewBox="0 0 841.9 595.3" style="enable-background:new 0 0 841.9 595.3;" xml:space="preserve">
<style type="text/css">
	.st0{fill:#4B4A63;}
	.st1{clip-path:url(#SVGID_2_);fill:url(#SVGID_3_);}
	.st2{clip-path:url(#SVGID_5_);fill:url(#SVGID_6_);}
	.st3{fill:#E83E58;}
	.st4{clip-path:url(#SVGID_8_);fill:url(#SVGID_9_);}
	.st5{clip-path:url(#SVGID_11_);fill:url(#SVGID_12_);}
	.st6{clip-path:url(#SVGID_14_);fill:url(#SVGID_15_);}
	.st7{clip-path:url(#SVGID_17_);fill:url(#SVGID_18_);}
	.st8{clip-path:url(#SVGID_20_);fill:url(#SVGID_21_);}
	.st9{clip-path:url(#SVGID_23_);fill:url(#SVGID_24_);}
	.st10{fill:#FFFFFF;}
</style>
<rect x="516.8" y="433.2" class="st0" width="113.3" height="113.3"/>
<g>
	<defs>
		<path id="SVGID_1_" d="M289.5,472.9c-0.1,4.9,4.2,9.6,9.4,9.4c5.3,0,9.5-4,9.5-9.2c0-5.3-4.1-9.6-9.3-9.6c0,0,0,0-0.1,0
			C293.7,463.4,289.6,467.6,289.5,472.9"/>
	</defs>
	<clipPath id="SVGID_2_">
		<use xlink:href="#SVGID_1_"  style="overflow:visible;"/>
	</clipPath>
	
		<linearGradient id="SVGID_3_" gradientUnits="userSpaceOnUse" x1="0" y1="595.2766" x2="1" y2="595.2766" gradientTransform="matrix(-110.9689 -113.3228 -113.3228 110.9689 67812.2344 -65528.2266)">
		<stop  offset="0" style="stop-color:#FEC90A"/>
		<stop  offset="2.721028e-02" style="stop-color:#FDC20C"/>
		<stop  offset="0.26" style="stop-color:#F28B18"/>
		<stop  offset="0.3726" style="stop-color:#EE751D"/>
		<stop  offset="0.5365" style="stop-color:#EB5C2E"/>
		<stop  offset="0.8422" style="stop-color:#E63449"/>
		<stop  offset="1" style="stop-color:#E42454"/>
	</linearGradient>
	<polygon class="st1" points="298.8,491.9 280,472.7 299.2,454 318,473.1 	"/>
</g>
<g>
	<defs>
		<path id="SVGID_4_" d="M293.2,497c0.6-1.1,1.5-2,2.7-2.7c1.1-0.7,2.4-1,3.9-1c1.4,0,2.7,0.3,3.7,0.9c1.1,0.6,1.9,1.5,2.5,2.5
			c0.6,1.1,0.9,2.3,0.9,3.7h-14.7C292.3,499.2,292.6,498,293.2,497 M269.8,465.5c-2.3,0-3.8,1-4.6,2.9c-0.4,0.8,1.2,4.2,2.1,6.2
			c0.8,1.7,1.6,3.4,2.5,5.1c0.7,0.8,1.3,1.7,2,2.5c0.6,0.7,1.2,1.3,1.8,2c0.5,0.5,1,1,1.6,1.4c0.1,0.1,0.2,0.1,0.2,0.2
			c0.1,0,0.1,0.1,0.2,0.1l0,0c2.2,1.7,4.7,3.2,7.7,4.4c1.1,0.4,1.9,0.6,1.9,1.5c0,0.3-0.3,0.8-0.5,1.2c-0.1,0.3-0.3,0.5-0.4,0.7
			c-1.5,2.8-2.2,6.1-2.2,9.9c0,3.8,0.7,7.2,2.2,10c1.5,2.8,3.5,5,6.2,6.5c2.7,1.5,5.9,2.3,9.7,2.3c3,0,5.7-0.5,8-1.4
			c2.3-0.9,4.2-2.2,5.6-3.9c1.5-1.7,2.4-3.6,2.9-5.9l-9.3-0.6c-0.3,0.9-0.9,1.7-1.5,2.3c-0.7,0.6-1.5,1.1-2.4,1.4
			c-0.9,0.3-2,0.5-3.1,0.5c-1.7,0-3.2-0.4-4.4-1.1c-1.2-0.7-2.2-1.7-2.9-3c-0.7-1.3-1-2.9-1-4.7v0h24.8v-2.8c0-3.1-0.4-5.8-1.3-8.1
			c-0.9-2.3-2.1-4.2-3.6-5.8c-1.6-1.5-3.4-2.7-5.5-3.5c-2.1-0.8-4.3-1.1-6.7-1.1c-1.8,0-3.5,0.2-5.1,0.6c-6.6-0.7-11.6-3.3-15.1-7.7
			c-0.6-0.8-1.1-1.6-1.6-2.4c-1.2-2.1-2-4.2-3.1-6.3c-0.1-0.2-0.2-0.4-0.2-0.6C273.7,466.5,272.1,465.5,269.8,465.5
			C269.8,465.5,269.8,465.5,269.8,465.5"/>
	</defs>
	<clipPath id="SVGID_5_">
		<use xlink:href="#SVGID_4_"  style="overflow:visible;"/>
	</clipPath>
	
		<linearGradient id="SVGID_6_" gradientUnits="userSpaceOnUse" x1="0" y1="595.2733" x2="1" y2="595.2733" gradientTransform="matrix(-110.9689 -113.3228 -113.3228 110.9689 67797.1953 -65513.5039)">
		<stop  offset="0" style="stop-color:#FEC90A"/>
		<stop  offset="2.721028e-02" style="stop-color:#FDC20C"/>
		<stop  offset="0.26" style="stop-color:#F28B18"/>
		<stop  offset="0.3726" style="stop-color:#EE751D"/>
		<stop  offset="0.5365" style="stop-color:#EB5C2E"/>
		<stop  offset="0.8422" style="stop-color:#E63449"/>
		<stop  offset="1" style="stop-color:#E42454"/>
	</linearGradient>
	<polygon class="st2" points="290.2,548.3 236.4,493.3 291.3,439.6 345.2,494.5 	"/>
</g>
<path class="st3" d="M281.2,462.2c0,0.4-0.3,0.6-0.5,0.9c-0.9,0.8-1.8,1.6-2.8,2.3c-0.5,0.4-1.1,0.6-1.6,0c-0.4-0.6-0.2-1,0.3-1.4
	c1-0.8,2-1.7,3-2.5c0.3-0.3,0.7-0.4,1.1-0.1C281.1,461.5,281.3,461.8,281.2,462.2"/>
<path class="st3" d="M271.4,459.7c0,0.6,0,1.3,0,1.9c0,0.6-0.4,1-1.1,1c-0.6,0-0.9-0.4-0.9-1c0-1.3,0-2.7,0-4c0-0.5,0.3-1,0.9-1
	c0.7,0,1,0.4,1.1,1C271.5,458.3,271.4,459,271.4,459.7"/>
<path class="st3" d="M264.8,464.8c-0.2,0.9-0.8,1.3-1.5,0.8c-1.2-0.9-2.4-1.9-3.5-2.9c-0.4-0.3-0.3-0.8,0.1-1.2
	c0.3-0.3,0.7-0.5,1.1-0.2c1.2,1,2.4,2,3.6,3C264.7,464.4,264.7,464.6,264.8,464.8"/>
<g>
	<defs>
		<path id="SVGID_7_" d="M231.2,473.4c0,5.6,4.2,10,9.6,10.1c5.5,0,9.8-4.3,9.8-10c0-5.5-4.3-10-9.6-10c0,0,0,0,0,0
			C235.6,463.4,231.2,467.9,231.2,473.4"/>
	</defs>
	<clipPath id="SVGID_8_">
		<use xlink:href="#SVGID_7_"  style="overflow:visible;"/>
	</clipPath>
	
		<linearGradient id="SVGID_9_" gradientUnits="userSpaceOnUse" x1="0" y1="595.276" x2="1" y2="595.276" gradientTransform="matrix(-113.4349 69.0473 69.0473 113.4349 -40846.7852 -67060.4844)">
		<stop  offset="0" style="stop-color:#E42454"/>
		<stop  offset="0.2654" style="stop-color:#BC2E65"/>
		<stop  offset="0.8582" style="stop-color:#574791"/>
		<stop  offset="1" style="stop-color:#3E4D9C"/>
	</linearGradient>
	<polygon class="st4" points="259.5,478 236.4,492.1 222.3,468.8 245.3,454.8 	"/>
</g>
<g>
	<defs>
		<path id="SVGID_10_" d="M236.7,513.9c-1.1-1-2-2.3-2.6-3.9c-0.6-1.7-0.9-3.5-0.9-5.6c0-2.1,0.3-4,0.9-5.7c0.6-1.7,1.4-3,2.6-3.9
			c0,0,0,0,0.1,0c0,0,0,0,0.1-0.1c1.1-0.9,2.5-1.4,4.1-1.4c1.6,0,3,0.5,4,1.4c0,0,0,0,0,0c0,0,0,0,0.1,0.1c1.1,1,1.9,2.3,2.5,3.9
			c0.6,1.7,0.9,3.5,0.9,5.7c0,2.1-0.3,4-0.9,5.6c-0.6,1.7-1.4,3-2.5,3.9c-1.1,1-2.5,1.4-4.2,1.4
			C239.3,515.3,237.8,514.8,236.7,513.9 M265.2,468.4c-1,2.3-1.9,4.7-3.2,6.9c-3.4,6-9,9.7-17.5,10.4c-0.3,0-0.6,0-0.9,0.1l-2.7-0.2
			c-3.7,0-6.8,0.8-9.5,2.4c-2.7,1.6-4.7,3.8-6.2,6.6c-1.4,2.8-2.2,6.1-2.2,9.8c0,3.7,0.7,7,2.2,9.8c1.4,2.8,3.5,5,6.2,6.6
			c2.7,1.6,5.8,2.4,9.5,2.4c3.7,0,6.8-0.8,9.5-2.4c2.7-1.6,4.7-3.8,6.2-6.6c1.4-2.8,2.2-6.1,2.2-9.8c0-3.8-0.7-7-2.2-9.8
			c-0.4-0.8-0.9-1.5-1.4-2.2c0,0-0.1-0.1-0.1-0.1c-0.3-0.9,0.3-1.1,1.3-1.4c2.5-0.9,4.7-2.2,6.7-3.6c2.8-2,4.9-4.5,6.8-7.1
			c0.8-1.7,1.7-3.4,2.5-5.2c0.9-2.1,2.1-4.1,2.2-6.3c-0.8-2-2.3-3-4.6-3c0,0-0.1,0-0.1,0C267.6,465.5,266.1,466.5,265.2,468.4"/>
	</defs>
	<clipPath id="SVGID_11_">
		<use xlink:href="#SVGID_10_"  style="overflow:visible;"/>
	</clipPath>
	
		<linearGradient id="SVGID_12_" gradientUnits="userSpaceOnUse" x1="0" y1="595.2425" x2="1" y2="595.2425" gradientTransform="matrix(-113.4349 69.0473 69.0473 113.4349 -40833.0547 -67037.9297)">
		<stop  offset="0" style="stop-color:#E42454"/>
		<stop  offset="0.2654" style="stop-color:#BC2E65"/>
		<stop  offset="0.8582" style="stop-color:#574791"/>
		<stop  offset="1" style="stop-color:#3E4D9C"/>
	</linearGradient>
	<polygon class="st5" points="300.2,507.5 237,546 197.4,481.1 260.7,442.6 	"/>
</g>
<path class="st0" d="M492.5,191.9c-3,0-5.7,0.7-7.9,2.1c-2.2,1.4-3.7,3.3-4.6,5.7h-0.4c-0.7-2.4-2-4.3-4-5.7c-2-1.4-4.4-2.1-7.2-2.1
	c-2.8,0-5.2,0.7-7.2,2.1c-2,1.4-3.4,3.3-4.3,5.7h-0.5v-7.3h-10.9v41.3h11.5V209c0-1.5,0.3-2.9,0.9-4c0.6-1.1,1.4-2,2.4-2.7
	c1-0.6,2.2-1,3.4-1c1.9,0,3.4,0.6,4.6,1.8c1.2,1.2,1.7,2.8,1.7,4.8v25.8H481v-25.3c0-2.2,0.6-3.9,1.8-5.2c1.2-1.3,2.8-2,4.9-2
	c1.8,0,3.4,0.6,4.6,1.7c1.2,1.1,1.8,2.9,1.8,5.2v25.5h11.4V206c0-4.5-1.2-8-3.6-10.4C499.5,193.1,496.3,191.9,492.5,191.9"/>
<path class="st0" d="M542.7,194.3c-2.5-1.6-5.3-2.4-8.3-2.4c-2.3,0-4.2,0.4-5.8,1.2c-1.6,0.8-2.8,1.8-3.8,2.9
	c-1,1.2-1.7,2.3-2.2,3.4h-0.5v-6.9h-11.3v56.9h11.5v-22.1h0.3c0.5,1.1,1.3,2.3,2.3,3.4c1,1.1,2.3,2.1,3.8,2.8
	c1.6,0.7,3.4,1.1,5.7,1.1c3.1,0,6-0.8,8.5-2.4c2.5-1.6,4.5-4,6-7.2c1.5-3.2,2.2-7.1,2.2-11.7c0-4.7-0.8-8.7-2.3-11.8
	C547.3,198.2,545.2,195.8,542.7,194.3 M538.4,219.5c-0.7,1.8-1.7,3.3-2.9,4.3c-1.3,1-2.9,1.5-4.7,1.5c-1.8,0-3.4-0.5-4.7-1.5
	c-1.3-1-2.3-2.4-3-4.3c-0.7-1.8-1-4-1-6.4c0-2.5,0.3-4.6,1-6.4c0.7-1.8,1.7-3.2,2.9-4.2c1.3-1,2.9-1.5,4.7-1.5
	c1.9,0,3.5,0.5,4.8,1.5c1.3,1,2.3,2.4,2.9,4.3c0.7,1.8,1,3.9,1,6.3C539.4,215.5,539,217.6,538.4,219.5"/>
<rect x="554.9" y="178.7" class="st0" width="11.5" height="55.1"/>
<path class="st0" d="M649.8,202.1c-1.7-3.2-4-5.7-7-7.5c-3-1.8-6.7-2.7-10.8-2.7c-4.2,0-7.8,0.9-10.8,2.7c-3,1.8-5.4,4.3-7,7.5
	c-1.7,3.2-2.5,6.9-2.5,11.2c0,4.2,0.8,8,2.5,11.2c1.7,3.2,4,5.7,7,7.5c3,1.8,6.7,2.7,10.8,2.7c4.2,0,7.8-0.9,10.8-2.7
	c3-1.8,5.4-4.3,7-7.5c1.7-3.2,2.5-6.9,2.5-11.2C652.3,209,651.5,205.3,649.8,202.1 M639.7,219.6c-0.7,1.9-1.6,3.4-2.9,4.5
	c-1.3,1.1-2.9,1.6-4.8,1.6c-1.9,0-3.5-0.5-4.8-1.6c-1.3-1.1-2.3-2.6-2.9-4.5c-0.7-1.9-1-4-1-6.4c0-2.4,0.3-4.6,1-6.4
	c0.7-1.9,1.6-3.4,2.9-4.5c1.3-1.1,2.9-1.6,4.8-1.6c1.9,0,3.5,0.5,4.8,1.6c1.3,1.1,2.2,2.6,2.9,4.5c0.7,1.9,1,4,1,6.4
	C640.6,215.6,640.3,217.8,639.7,219.6"/>
<path class="st0" d="M228.4,234.8c-4.3,0-7.9-0.9-11-2.6c-3.1-1.7-5.4-4.2-7.1-7.4c-1.7-3.2-2.5-7-2.5-11.3c0-4.3,0.8-8,2.5-11.2
	c1.7-3.2,4-5.7,7-7.5c3-1.8,6.5-2.7,10.6-2.7c2.7,0,5.3,0.4,7.6,1.3c2.4,0.9,4.4,2.2,6.2,3.9c1.8,1.7,3.1,3.9,4.1,6.6
	s1.5,5.7,1.5,9.2v3.1h-34.9v-7.1h24.1c0-1.7-0.4-3.1-1.1-4.4c-0.7-1.3-1.7-2.3-3-3c-1.3-0.7-2.7-1.1-4.4-1.1c-1.7,0-3.3,0.4-4.6,1.2
	c-1.3,0.8-2.4,1.9-3.1,3.2c-0.8,1.3-1.1,2.8-1.2,4.5v6.8c0,2,0.4,3.8,1.1,5.3c0.8,1.5,1.8,2.6,3.2,3.4c1.4,0.8,3.1,1.2,5,1.2
	c1.3,0,2.4-0.2,3.5-0.5c1.1-0.4,2-0.9,2.7-1.6c0.8-0.7,1.3-1.6,1.7-2.6l10.6,0.7c-0.5,2.5-1.6,4.8-3.3,6.7c-1.7,1.9-3.8,3.4-6.4,4.4
	C234.8,234.2,231.8,234.8,228.4,234.8"/>
<polygon class="st0" points="260.6,192.6 268.2,207.1 276,192.6 287.7,192.6 275.8,213.3 288.1,234 276.4,234 268.2,219.7 
	260.2,234 248.3,234 260.6,213.3 248.8,192.6 "/>
<path class="st0" d="M290.7,249.5v-56.9H302v6.9h0.5c0.5-1.1,1.2-2.2,2.2-3.4c1-1.2,2.2-2.1,3.8-2.9c1.6-0.8,3.5-1.2,5.8-1.2
	c3,0,5.8,0.8,8.3,2.4c2.5,1.6,4.6,3.9,6.1,7.1c1.5,3.1,2.3,7.1,2.3,11.8c0,4.6-0.7,8.5-2.2,11.7c-1.5,3.2-3.5,5.6-6,7.2
	c-2.5,1.6-5.4,2.4-8.5,2.4c-2.2,0-4.1-0.4-5.7-1.1c-1.6-0.7-2.8-1.7-3.8-2.8c-1-1.1-1.7-2.3-2.3-3.4h-0.4v22.1H290.7z M302,213.3
	c0,2.5,0.3,4.6,1,6.4c0.7,1.8,1.7,3.3,3,4.3s2.9,1.5,4.7,1.5c1.9,0,3.4-0.5,4.7-1.5c1.3-1,2.3-2.5,2.9-4.3c0.7-1.8,1-4,1-6.4
	c0-2.4-0.3-4.5-1-6.3c-0.7-1.8-1.6-3.2-2.9-4.3c-1.3-1-2.9-1.5-4.8-1.5c-1.9,0-3.4,0.5-4.7,1.5c-1.3,1-2.3,2.4-2.9,4.2
	C302.3,208.7,302,210.8,302,213.3"/>
<path class="st0" d="M603.1,197.1c-1.8-1.7-3.8-3-6.2-3.9s-4.9-1.3-7.6-1.3c-4.1,0-7.6,0.9-10.6,2.7c-3,1.8-5.3,4.3-7,7.5
	c-1.7,3.2-2.5,6.9-2.5,11.2c0,4.4,0.8,8.1,2.5,11.3c1.7,3.2,4,5.6,7.1,7.4c3.1,1.7,6.7,2.6,11,2.6c3.4,0,6.4-0.5,9-1.6
	c2.6-1,4.7-2.5,6.4-4.4c1.7-1.9,2.8-4.1,3.3-6.7l-10.6-0.7c-0.4,1-1,1.9-1.7,2.6c-0.8,0.7-1.7,1.3-2.7,1.6c-1.1,0.4-2.2,0.5-3.5,0.5
	c-1.9,0-3.6-0.4-5-1.2c-1.4-0.8-2.5-2-3.2-3.4c-0.8-1.5-1.1-3.3-1.1-5.3v0h28.2v-3.1c0-3.5-0.5-6.6-1.5-9.2
	C606.3,201.1,604.9,198.9,603.1,197.1 M580.6,209c0.1-1.5,0.4-2.8,1.1-4.1c0.8-1.3,1.8-2.4,3.1-3.2c1.3-0.8,2.9-1.2,4.6-1.2
	c1.7,0,3.1,0.4,4.4,1.1c1.3,0.7,2.3,1.7,3,3c0.7,1.3,1.1,2.7,1.1,4.4H580.6z"/>
<g>
	<defs>
		<path id="SVGID_13_" d="M410.2,176.5c-0.1,5.6,4.9,11.1,10.9,10.9c6.1,0,11-4.7,11-10.7c0-6.2-4.7-11.1-10.8-11.2c0,0-0.1,0-0.1,0
			C415,165.5,410.2,170.3,410.2,176.5"/>
	</defs>
	<clipPath id="SVGID_14_">
		<use xlink:href="#SVGID_13_"  style="overflow:visible;"/>
	</clipPath>
	
		<linearGradient id="SVGID_15_" gradientUnits="userSpaceOnUse" x1="0" y1="595.2766" x2="1" y2="595.2766" gradientTransform="matrix(-128.9007 -131.6349 -131.6349 128.9007 78844.0313 -76489.9219)">
		<stop  offset="0" style="stop-color:#FEC90A"/>
		<stop  offset="2.721028e-02" style="stop-color:#FDC20C"/>
		<stop  offset="0.26" style="stop-color:#F28B18"/>
		<stop  offset="0.3726" style="stop-color:#EE751D"/>
		<stop  offset="0.5365" style="stop-color:#EB5C2E"/>
		<stop  offset="0.8422" style="stop-color:#E63449"/>
		<stop  offset="1" style="stop-color:#E42454"/>
	</linearGradient>
	<polygon class="st6" points="420.9,198.6 399.1,176.3 421.3,154.5 443.2,176.8 	"/>
</g>
<g>
	<defs>
		<path id="SVGID_16_" d="M414.5,204.5c0.7-1.3,1.8-2.4,3.1-3.2c1.3-0.8,2.8-1.2,4.5-1.2c1.6,0,3.1,0.4,4.3,1.1
			c1.2,0.7,2.2,1.7,2.9,3c0.7,1.3,1.1,2.7,1.1,4.3h-17.1C413.4,207,413.8,205.7,414.5,204.5 M387.2,167.9c-2.6,0-4.4,1.2-5.4,3.4
			c-0.4,0.9,1.4,4.8,2.5,7.2c0.9,2,1.9,3.9,2.9,5.9c0.8,1,1.5,2,2.4,2.9c0.7,0.8,1.4,1.5,2.1,2.3c0.6,0.6,1.2,1.1,1.9,1.7
			c0.1,0.1,0.2,0.2,0.3,0.2c0.1,0.1,0.1,0.1,0.2,0.2l0,0c2.5,2,5.5,3.7,8.9,5.1c1.3,0.5,2.2,0.7,2.2,1.7c0,0.3-0.3,0.9-0.6,1.3
			c-0.2,0.3-0.4,0.6-0.5,0.9c-1.7,3.3-2.5,7.1-2.5,11.5c0,4.5,0.8,8.3,2.5,11.6c1.7,3.3,4.1,5.8,7.2,7.5c3.1,1.8,6.9,2.7,11.2,2.7
			c3.5,0,6.6-0.5,9.2-1.6c2.7-1.1,4.9-2.6,6.6-4.5c1.7-1.9,2.8-4.2,3.4-6.8l-10.9-0.7c-0.4,1.1-1,2-1.8,2.7
			c-0.8,0.7-1.7,1.3-2.8,1.7c-1.1,0.4-2.3,0.6-3.6,0.6c-2,0-3.7-0.4-5.1-1.2c-1.4-0.8-2.5-2-3.3-3.5c-0.8-1.5-1.2-3.3-1.2-5.4v0
			h28.8v-3.2c0-3.6-0.5-6.7-1.5-9.4c-1-2.7-2.4-4.9-4.2-6.7c-1.8-1.8-3.9-3.1-6.3-4c-2.4-0.9-5-1.3-7.8-1.3c-2.1,0-4.1,0.3-6,0.7
			c-7.7-0.8-13.5-3.8-17.5-9c-0.7-0.9-1.3-1.8-1.9-2.8c-1.4-2.4-2.3-4.9-3.6-7.4c-0.1-0.2-0.2-0.4-0.3-0.6c-1-2.1-2.8-3.2-5.4-3.2
			C387.3,167.9,387.3,167.9,387.2,167.9"/>
	</defs>
	<clipPath id="SVGID_17_">
		<use xlink:href="#SVGID_16_"  style="overflow:visible;"/>
	</clipPath>
	
		<linearGradient id="SVGID_18_" gradientUnits="userSpaceOnUse" x1="0" y1="595.2733" x2="1" y2="595.2733" gradientTransform="matrix(-128.9007 -131.6349 -131.6349 128.9007 78826.5625 -76472.8203)">
		<stop  offset="0" style="stop-color:#FEC90A"/>
		<stop  offset="2.721028e-02" style="stop-color:#FDC20C"/>
		<stop  offset="0.26" style="stop-color:#F28B18"/>
		<stop  offset="0.3726" style="stop-color:#EE751D"/>
		<stop  offset="0.5365" style="stop-color:#EB5C2E"/>
		<stop  offset="0.8422" style="stop-color:#E63449"/>
		<stop  offset="1" style="stop-color:#E42454"/>
	</linearGradient>
	<polygon class="st7" points="411,264.1 348.5,200.2 412.3,137.8 474.8,201.6 	"/>
</g>
<path class="st3" d="M400.5,164c0,0.5-0.3,0.7-0.6,1c-1.1,0.9-2.1,1.8-3.2,2.7c-0.6,0.5-1.3,0.7-1.8,0c-0.5-0.6-0.2-1.2,0.4-1.7
	c1.2-1,2.3-1.9,3.5-2.9c0.4-0.3,0.8-0.4,1.3-0.1C400.4,163.3,400.6,163.6,400.5,164"/>
<path class="st3" d="M389.2,161.1c0,0.8,0,1.5,0,2.3c0,0.7-0.4,1.2-1.2,1.2c-0.7,0-1-0.5-1-1.2c0-1.6,0-3.1,0-4.7
	c0-0.6,0.4-1.1,1-1.2c0.8,0,1.2,0.5,1.2,1.2C389.2,159.5,389.2,160.3,389.2,161.1"/>
<path class="st3" d="M381.4,167c-0.3,1-1,1.5-1.7,0.9c-1.4-1-2.7-2.2-4-3.4c-0.4-0.4-0.3-1,0.1-1.4c0.4-0.4,0.8-0.6,1.3-0.2
	c1.4,1.1,2.8,2.3,4.1,3.5C381.3,166.6,381.4,166.9,381.4,167"/>
<g>
	<defs>
		<path id="SVGID_19_" d="M342.4,177c0,6.5,4.9,11.6,11.1,11.7c6.3,0,11.3-5,11.4-11.6c0-6.4-5-11.6-11.2-11.6c0,0,0,0,0,0
			C347.5,165.5,342.4,170.7,342.4,177"/>
	</defs>
	<clipPath id="SVGID_20_">
		<use xlink:href="#SVGID_19_"  style="overflow:visible;"/>
	</clipPath>
	
		<linearGradient id="SVGID_21_" gradientUnits="userSpaceOnUse" x1="0" y1="595.276" x2="1" y2="595.276" gradientTransform="matrix(-131.7651 80.2048 80.2048 131.7651 -47373.4727 -78269.7891)">
		<stop  offset="0" style="stop-color:#E42454"/>
		<stop  offset="0.2654" style="stop-color:#BC2E65"/>
		<stop  offset="0.8582" style="stop-color:#574791"/>
		<stop  offset="1" style="stop-color:#3E4D9C"/>
	</linearGradient>
	<polygon class="st8" points="375.2,182.5 348.5,198.7 332.1,171.8 358.8,155.5 	"/>
</g>
<g>
	<defs>
		<path id="SVGID_22_" d="M348.8,224.1c-1.3-1.1-2.3-2.6-3-4.5c-0.7-1.9-1-4.1-1-6.6c0-2.5,0.3-4.6,1-6.6c0.7-1.9,1.7-3.4,3-4.6
			c0,0,0,0,0.1,0c0,0,0,0,0.1-0.1c1.3-1.1,2.9-1.6,4.8-1.6c1.9,0,3.4,0.5,4.7,1.6c0,0,0,0,0,0c0,0,0.1,0,0.1,0.1
			c1.3,1.1,2.3,2.6,2.9,4.6c0.7,1.9,1,4.1,1,6.6c0,2.5-0.3,4.6-1,6.6c-0.7,1.9-1.6,3.4-2.9,4.5c-1.3,1.1-2.9,1.7-4.8,1.7
			C351.8,225.7,350.1,225.2,348.8,224.1 M381.9,171.3c-1.2,2.7-2.2,5.4-3.7,8c-4,6.9-10.5,11.3-20.3,12.1c-0.3,0-0.7,0-1,0.1
			l-3.2-0.2c-4.3,0-7.9,0.9-11,2.7c-3.1,1.8-5.5,4.4-7.2,7.6c-1.7,3.3-2.5,7.1-2.5,11.4c0,4.3,0.8,8.1,2.5,11.4
			c1.7,3.3,4.1,5.8,7.2,7.6c3.1,1.8,6.8,2.7,11,2.7c4.3,0,7.9-0.9,11.1-2.7c3.1-1.8,5.5-4.4,7.2-7.6c1.7-3.3,2.5-7.1,2.5-11.4
			c0-4.4-0.8-8.2-2.5-11.4c-0.5-0.9-1-1.8-1.6-2.5c0,0-0.1-0.1-0.1-0.2c-0.3-1,0.4-1.3,1.5-1.7c2.9-1.1,5.4-2.5,7.8-4.2
			c3.3-2.4,5.7-5.2,7.9-8.2c1-2,2-4,2.9-6c1-2.4,2.4-4.8,2.6-7.4c-0.9-2.3-2.7-3.5-5.4-3.5c0,0-0.1,0-0.1,0
			C384.7,167.9,382.9,169.1,381.9,171.3"/>
	</defs>
	<clipPath id="SVGID_23_">
		<use xlink:href="#SVGID_22_"  style="overflow:visible;"/>
	</clipPath>
	
		<linearGradient id="SVGID_24_" gradientUnits="userSpaceOnUse" x1="0" y1="595.2425" x2="1" y2="595.2425" gradientTransform="matrix(-131.7651 80.2048 80.2048 131.7651 -47357.5234 -78243.5859)">
		<stop  offset="0" style="stop-color:#E42454"/>
		<stop  offset="0.2654" style="stop-color:#BC2E65"/>
		<stop  offset="0.8582" style="stop-color:#574791"/>
		<stop  offset="1" style="stop-color:#3E4D9C"/>
	</linearGradient>
	<polygon class="st9" points="422.5,216.7 349.1,261.4 303.2,186 376.6,141.3 	"/>
</g>
<path class="st0" d="M440.8,482.3c5.3,0,9.5-4,9.5-9.2c0-5.3-4-9.6-9.3-9.6c-5.4,0-9.5,4.1-9.6,9.4
	C431.4,477.8,435.6,482.5,440.8,482.3"/>
<path class="st0" d="M423.1,462.2c0,0.4-0.3,0.6-0.5,0.9c-0.9,0.8-1.8,1.6-2.8,2.3c-0.5,0.4-1.1,0.6-1.6,0c-0.4-0.6-0.2-1,0.3-1.4
	c1-0.8,2-1.7,3-2.5c0.3-0.3,0.7-0.4,1.1-0.1C423,461.5,423.2,461.8,423.1,462.2"/>
<path class="st0" d="M413.3,459.7c0,0.6,0,1.3,0,1.9c0,0.6-0.4,1-1.1,1c-0.6,0-0.9-0.4-0.9-1c0-1.3,0-2.7,0-4c0-0.5,0.3-1,0.9-1
	c0.7,0,1,0.4,1,1C413.4,458.3,413.3,459,413.3,459.7"/>
<path class="st0" d="M406.7,464.8c-0.2,0.9-0.8,1.3-1.5,0.8c-1.2-0.9-2.4-1.9-3.5-2.9c-0.3-0.3-0.3-0.8,0.1-1.2
	c0.3-0.3,0.7-0.5,1.1-0.2c1.2,1,2.4,2,3.6,3C406.6,464.4,406.6,464.7,406.7,464.8"/>
<path class="st0" d="M382.7,483.4c5.5,0,9.8-4.3,9.8-9.9c0-5.5-4.3-10-9.6-10c-5.3,0-9.7,4.4-9.7,9.9
	C373.1,478.9,377.4,483.4,382.7,483.4"/>
<path class="st0" d="M382.8,485.6c-3.7,0-6.8,0.8-9.5,2.3c-2.7,1.6-4.7,3.8-6.2,6.6c-1.4,2.8-2.2,6.1-2.2,9.8c0,3.7,0.7,7,2.2,9.8
	c1.4,2.8,3.5,5,6.2,6.6c2.7,1.6,5.8,2.3,9.5,2.3c3.7,0,6.8-0.8,9.5-2.3c2.7-1.6,4.7-3.8,6.2-6.6c1.4-2.8,2.2-6.1,2.2-9.8
	c0-3.7-0.7-7-2.2-9.8c-0.4-0.8-0.9-1.5-1.4-2.2c0,0-0.1-0.1-0.1-0.1c-0.3-0.9,0.3-1.1,1.3-1.4c2.5-0.9,4.7-2.2,6.7-3.6
	c2.1-1.5,3.8-3.3,5.3-5.2c0.5-0.6,2.2-3.4,2.6-4.2c0.5-0.9,0.8-1.9,1.4-2.9c0.2-0.3,1.7-3.3,2.2-6.3c-0.8-2-2.3-3-4.6-3
	c-2.3,0-3.9,0.9-4.8,2.9c-1,2.3-1.9,4.7-3.2,6.9c-3.4,6-9,9.7-17.5,10.4c-0.3,0-0.6,0-0.9,0.1 M389.5,509.9c-0.6,1.7-1.4,3-2.5,3.9
	c-1.1,1-2.5,1.4-4.1,1.4c-1.7,0-3.1-0.5-4.2-1.4c-1.1-1-2-2.3-2.6-3.9c-0.6-1.7-0.9-3.5-0.9-5.6c0-2.1,0.3-4,0.9-5.6
	c0.6-1.7,1.4-3,2.6-3.9c0,0,0,0,0.1,0c0,0,0,0,0.1-0.1c1.1-0.9,2.5-1.4,4.1-1.4c1.6,0,3,0.5,4,1.4c0,0,0,0,0,0c0,0,0.1,0,0.1,0.1
	c1.1,1,1.9,2.3,2.5,3.9c0.6,1.7,0.9,3.5,0.9,5.6C390.4,506.4,390.1,508.3,389.5,509.9"/>
<path class="st0" d="M458.6,505.9v-2.8c0-3.1-0.4-5.8-1.3-8.1c-0.9-2.3-2.1-4.2-3.6-5.8c-1.6-1.5-3.4-2.7-5.4-3.4
	c-2.1-0.8-4.3-1.1-6.7-1.1c-1.8,0-3.5,0.2-5.1,0.6c-6.6-0.7-11.6-3.3-15-7.7c-0.6-0.8-1.1-1.6-1.6-2.4c-0.6-1-1-2-1.5-3
	c-0.8,1.8-1.6,3.5-2.4,5.3c-0.7,1.5-1.5,3-2.4,4.4c0.1,0.1,0.2,0.2,0.2,0.3c0.6,0.7,1.2,1.3,1.8,1.9c0.5,0.5,1,1,1.6,1.4
	c0.1,0.1,0.2,0.1,0.2,0.2c0.1,0,0.1,0.1,0.2,0.1l0,0c2.2,1.7,4.7,3.2,7.7,4.4c1.1,0.4,1.9,0.6,1.9,1.5c0,0.3-0.3,0.8-0.5,1.2
	c-0.1,0.3-0.3,0.5-0.4,0.7c-1.5,2.8-2.2,6.1-2.2,9.8c0,3.8,0.7,7.2,2.2,10c1.5,2.8,3.5,5,6.2,6.5c2.7,1.5,5.9,2.3,9.6,2.3
	c3,0,5.6-0.5,7.9-1.4c2.3-0.9,4.2-2.2,5.6-3.9c1.5-1.7,2.4-3.6,2.9-5.9l-9.3-0.6c-0.3,0.9-0.9,1.7-1.5,2.3c-0.7,0.6-1.5,1.1-2.4,1.4
	c-0.9,0.3-2,0.5-3.1,0.5c-1.7,0-3.1-0.4-4.4-1.1c-1.2-0.7-2.2-1.7-2.9-3c-0.7-1.3-1-2.9-1-4.7v0H458.6z M435.1,497
	c0.6-1.1,1.5-2,2.7-2.7c1.1-0.7,2.4-1,3.9-1c1.4,0,2.7,0.3,3.7,0.9c1.1,0.6,1.9,1.5,2.5,2.5c0.6,1.1,0.9,2.3,0.9,3.7h-14.7
	C434.2,499.2,434.5,498,435.1,497"/>
<path class="st10" d="M601.9,481.2c5.3,0,9.5-4,9.5-9.2c0-5.3-4-9.6-9.3-9.6c-5.4,0-9.5,4.1-9.6,9.4
	C592.5,476.7,596.8,481.4,601.9,481.2"/>
<path class="st10" d="M584.3,461.2c0,0.4-0.3,0.6-0.5,0.9c-0.9,0.8-1.8,1.6-2.8,2.3c-0.5,0.4-1.1,0.6-1.6,0c-0.4-0.6-0.2-1,0.3-1.4
	c1-0.8,2-1.7,3-2.5c0.3-0.3,0.7-0.4,1.1-0.1C584.2,460.5,584.3,460.8,584.3,461.2"/>
<path class="st10" d="M574.5,458.7c0,0.6,0,1.3,0,1.9c0,0.6-0.4,1-1.1,1c-0.6,0-0.9-0.4-0.9-1c0-1.3,0-2.7,0-4c0-0.5,0.3-1,0.9-1
	c0.7,0,1,0.4,1,1C574.5,457.3,574.5,458,574.5,458.7"/>
<path class="st10" d="M567.9,463.8c-0.2,0.9-0.8,1.3-1.5,0.8c-1.2-0.9-2.4-1.9-3.5-2.9c-0.3-0.3-0.3-0.8,0.1-1.2
	c0.3-0.3,0.7-0.5,1.1-0.2c1.2,1,2.4,2,3.6,3C567.8,463.4,567.8,463.6,567.9,463.8"/>
<path class="st10" d="M543.9,482.4c5.5,0,9.8-4.3,9.8-9.9c0-5.5-4.3-10-9.6-10c-5.3,0-9.7,4.4-9.7,9.9
	C534.3,477.9,538.5,482.3,543.9,482.4"/>
<path class="st10" d="M544,484.6c-3.7,0-6.8,0.8-9.5,2.3c-2.7,1.6-4.7,3.8-6.2,6.6c-1.4,2.8-2.2,6.1-2.2,9.8c0,3.7,0.7,7,2.2,9.8
	c1.4,2.8,3.5,5,6.2,6.6c2.7,1.6,5.8,2.3,9.5,2.3c3.7,0,6.8-0.8,9.5-2.3c2.7-1.6,4.7-3.8,6.2-6.6c1.4-2.8,2.2-6.1,2.2-9.8
	c0-3.7-0.7-7-2.2-9.8c-0.4-0.8-0.9-1.5-1.4-2.2c0,0-0.1-0.1-0.1-0.1c-0.3-0.9,0.3-1.1,1.3-1.4c2.5-0.9,4.7-2.2,6.7-3.6
	c2.1-1.5,3.8-3.3,5.3-5.2c0.5-0.6,2.2-3.4,2.6-4.2c0.5-0.9,0.8-1.9,1.4-2.9c0.2-0.3,1.7-3.3,2.2-6.3c-0.8-2-2.3-3-4.6-3
	c-2.3,0-3.9,0.9-4.8,2.9c-1,2.3-1.9,4.7-3.2,6.9c-3.4,6-9,9.7-17.5,10.4c-0.3,0-0.6,0-0.9,0.1 M550.7,508.9c-0.6,1.7-1.4,3-2.5,3.9
	c-1.1,1-2.5,1.4-4.1,1.4c-1.7,0-3.1-0.5-4.2-1.4c-1.1-1-2-2.3-2.6-3.9c-0.6-1.7-0.9-3.5-0.9-5.6c0-2.1,0.3-4,0.9-5.6
	c0.6-1.6,1.4-3,2.6-3.9c0,0,0,0,0.1,0c0,0,0,0,0.1-0.1c1.1-0.9,2.5-1.4,4.1-1.4c1.6,0,3,0.5,4,1.4c0,0,0,0,0,0c0,0,0.1,0,0.1,0.1
	c1.1,1,1.9,2.3,2.5,3.9c0.6,1.7,0.9,3.5,0.9,5.6C551.6,505.3,551.3,507.2,550.7,508.9"/>
<path class="st10" d="M619.8,504.9v-2.8c0-3.1-0.4-5.8-1.3-8.1c-0.9-2.3-2.1-4.2-3.6-5.8c-1.6-1.5-3.4-2.7-5.4-3.4
	c-2.1-0.8-4.3-1.1-6.7-1.1c-1.8,0-3.5,0.2-5.1,0.6c-6.6-0.7-11.6-3.3-15-7.7c-0.6-0.8-1.1-1.6-1.6-2.4c-0.6-1-1-2-1.5-3
	c-0.8,1.8-1.6,3.5-2.4,5.3c-0.7,1.5-1.5,3-2.4,4.4c0.1,0.1,0.2,0.2,0.2,0.3c0.6,0.7,1.2,1.3,1.8,1.9c0.5,0.5,1,1,1.6,1.4
	c0.1,0.1,0.2,0.1,0.2,0.2c0.1,0,0.1,0.1,0.2,0.1l0,0c2.2,1.7,4.7,3.2,7.7,4.4c1.1,0.4,1.9,0.6,1.9,1.5c0,0.3-0.3,0.8-0.5,1.2
	c-0.1,0.3-0.3,0.5-0.4,0.7c-1.5,2.8-2.2,6.1-2.2,9.8c0,3.8,0.7,7.2,2.2,10c1.5,2.8,3.5,5,6.2,6.5c2.7,1.5,5.9,2.3,9.6,2.3
	c3,0,5.6-0.5,7.9-1.4c2.3-0.9,4.2-2.2,5.6-3.9c1.5-1.7,2.4-3.6,2.9-5.9l-9.3-0.6c-0.3,0.9-0.9,1.7-1.5,2.3c-0.7,0.6-1.5,1.1-2.4,1.4
	c-0.9,0.3-2,0.5-3.1,0.5c-1.7,0-3.1-0.4-4.4-1.1c-1.2-0.7-2.2-1.7-2.9-3c-0.7-1.3-1-2.9-1-4.7v0H619.8z M596.3,495.9
	c0.6-1.1,1.5-2,2.7-2.7c1.1-0.7,2.4-1,3.9-1c1.4,0,2.7,0.3,3.7,0.9c1.1,0.6,1.9,1.5,2.5,2.5c0.6,1.1,0.9,2.3,0.9,3.7h-14.7
	C595.4,498.1,595.7,497,596.3,495.9"/>
<rect x="426.9" y="300.6" class="st0" width="225.4" height="60.5"/>
<path class="st0" d="M330.4,323.2c-1.4,0-2.5,0.3-3.5,1c-1,0.6-1.7,1.5-2,2.5h-0.2c-0.3-1.1-0.9-1.9-1.8-2.6c-0.9-0.6-2-0.9-3.2-0.9
	c-1.3,0-2.3,0.3-3.2,0.9c-0.9,0.6-1.5,1.5-1.9,2.6h-0.2v-3.3h-4.9v18.5h5.1v-11.1c0-0.7,0.1-1.3,0.4-1.8c0.3-0.5,0.6-0.9,1.1-1.2
	s1-0.4,1.5-0.4c0.8,0,1.5,0.3,2,0.8c0.5,0.5,0.8,1.3,0.8,2.2v11.5h5v-11.3c0-1,0.3-1.7,0.8-2.3c0.5-0.6,1.2-0.9,2.2-0.9
	c0.8,0,1.5,0.3,2,0.8c0.5,0.5,0.8,1.3,0.8,2.3v11.4h5.1v-12.4c0-2-0.5-3.6-1.6-4.6S332.1,323.2,330.4,323.2"/>
<path class="st0" d="M352.8,324.3c-1.1-0.7-2.4-1.1-3.7-1.1c-1,0-1.9,0.2-2.6,0.5c-0.7,0.3-1.3,0.8-1.7,1.3c-0.4,0.5-0.8,1-1,1.5
	h-0.2v-3.1h-5v25.4h5.1V339h0.2c0.2,0.5,0.6,1,1,1.5c0.4,0.5,1,0.9,1.7,1.2c0.7,0.3,1.5,0.5,2.5,0.5c1.4,0,2.7-0.4,3.8-1.1
	c1.1-0.7,2-1.8,2.7-3.2s1-3.2,1-5.2c0-2.1-0.3-3.9-1-5.3C354.9,326,354,325,352.8,324.3 M350.9,335.6c-0.3,0.8-0.7,1.5-1.3,1.9
	c-0.6,0.5-1.3,0.7-2.1,0.7c-0.8,0-1.5-0.2-2.1-0.7c-0.6-0.5-1-1.1-1.3-1.9c-0.3-0.8-0.5-1.8-0.5-2.9c0-1.1,0.2-2,0.5-2.9
	c0.3-0.8,0.7-1.4,1.3-1.9c0.6-0.4,1.3-0.7,2.1-0.7c0.8,0,1.6,0.2,2.1,0.7s1,1.1,1.3,1.9c0.3,0.8,0.4,1.7,0.4,2.8
	C351.3,333.8,351.2,334.7,350.9,335.6"/>
<rect x="358.3" y="317.3" class="st0" width="5.1" height="24.6"/>
<path class="st0" d="M400.7,327.8c-0.7-1.4-1.8-2.5-3.1-3.3s-3-1.2-4.8-1.2c-1.9,0-3.5,0.4-4.8,1.2c-1.4,0.8-2.4,1.9-3.1,3.3
	c-0.7,1.4-1.1,3.1-1.1,5c0,1.9,0.4,3.6,1.1,5c0.7,1.4,1.8,2.5,3.1,3.3c1.4,0.8,3,1.2,4.8,1.2c1.9,0,3.5-0.4,4.8-1.2
	c1.4-0.8,2.4-1.9,3.1-3.3c0.7-1.4,1.1-3.1,1.1-5C401.8,330.9,401.4,329.2,400.7,327.8 M396.1,335.6c-0.3,0.8-0.7,1.5-1.3,2
	c-0.6,0.5-1.3,0.7-2.1,0.7c-0.9,0-1.6-0.2-2.2-0.7c-0.6-0.5-1-1.1-1.3-2c-0.3-0.8-0.4-1.8-0.4-2.9c0-1.1,0.1-2,0.4-2.9
	c0.3-0.8,0.7-1.5,1.3-2c0.6-0.5,1.3-0.7,2.2-0.7c0.8,0,1.6,0.2,2.1,0.7c0.6,0.5,1,1.2,1.3,2c0.3,0.8,0.4,1.8,0.4,2.9
	C396.6,333.8,396.4,334.8,396.1,335.6"/>
<path class="st0" d="M212.5,342.4c-1.9,0-3.5-0.4-4.9-1.2c-1.4-0.8-2.4-1.9-3.2-3.3c-0.7-1.4-1.1-3.1-1.1-5.1c0-1.9,0.4-3.6,1.1-5
	c0.7-1.4,1.8-2.6,3.1-3.4s2.9-1.2,4.7-1.2c1.2,0,2.4,0.2,3.4,0.6c1.1,0.4,2,1,2.8,1.7s1.4,1.8,1.8,2.9c0.4,1.2,0.7,2.5,0.7,4.1v1.4
	h-15.6v-3.2h10.8c0-0.7-0.2-1.4-0.5-2c-0.3-0.6-0.8-1-1.3-1.3c-0.6-0.3-1.2-0.5-2-0.5c-0.8,0-1.5,0.2-2.1,0.5
	c-0.6,0.4-1.1,0.8-1.4,1.4c-0.3,0.6-0.5,1.3-0.5,2v3c0,0.9,0.2,1.7,0.5,2.4c0.3,0.7,0.8,1.2,1.4,1.5c0.6,0.4,1.4,0.5,2.2,0.5
	c0.6,0,1.1-0.1,1.6-0.2c0.5-0.2,0.9-0.4,1.2-0.7c0.3-0.3,0.6-0.7,0.8-1.2l4.7,0.3c-0.2,1.1-0.7,2.1-1.5,3c-0.7,0.8-1.7,1.5-2.9,2
	C215.3,342.1,214,342.4,212.5,342.4"/>
<polygon class="st0" points="226.9,323.6 230.3,330 233.7,323.6 239,323.6 233.6,332.8 239.1,342 233.9,342 230.3,335.6 226.7,342 
	221.4,342 226.9,332.8 221.6,323.6 "/>
<path class="st0" d="M240.3,348.9v-25.4h5v3.1h0.2c0.2-0.5,0.6-1,1-1.5c0.4-0.5,1-0.9,1.7-1.3c0.7-0.3,1.6-0.5,2.6-0.5
	c1.3,0,2.6,0.4,3.7,1.1c1.1,0.7,2,1.8,2.7,3.2c0.7,1.4,1,3.2,1,5.3c0,2.1-0.3,3.8-1,5.2c-0.7,1.4-1.6,2.5-2.7,3.2
	c-1.1,0.7-2.4,1.1-3.8,1.1c-1,0-1.8-0.2-2.5-0.5c-0.7-0.3-1.3-0.7-1.7-1.2c-0.4-0.5-0.8-1-1-1.5h-0.2v9.9H240.3z M245.3,332.8
	c0,1.1,0.2,2.1,0.5,2.9c0.3,0.8,0.7,1.5,1.3,1.9c0.6,0.5,1.3,0.7,2.1,0.7c0.8,0,1.5-0.2,2.1-0.7c0.6-0.5,1-1.1,1.3-1.9
	c0.3-0.8,0.5-1.8,0.5-2.8c0-1.1-0.1-2-0.4-2.8c-0.3-0.8-0.7-1.4-1.3-1.9c-0.6-0.5-1.3-0.7-2.1-0.7c-0.8,0-1.5,0.2-2.1,0.7
	c-0.6,0.4-1,1.1-1.3,1.9C245.5,330.7,245.3,331.7,245.3,332.8"/>
<path class="st0" d="M379.8,325.6c-0.8-0.8-1.7-1.4-2.8-1.7c-1.1-0.4-2.2-0.6-3.4-0.6c-1.8,0-3.4,0.4-4.7,1.2
	c-1.3,0.8-2.4,1.9-3.1,3.4c-0.7,1.4-1.1,3.1-1.1,5c0,1.9,0.4,3.6,1.1,5.1c0.7,1.4,1.8,2.5,3.2,3.3c1.4,0.8,3,1.2,4.9,1.2
	c1.5,0,2.9-0.2,4-0.7c1.2-0.5,2.1-1.1,2.9-2c0.7-0.8,1.2-1.8,1.5-3l-4.7-0.3c-0.2,0.5-0.4,0.9-0.8,1.2c-0.3,0.3-0.7,0.6-1.2,0.7
	c-0.5,0.2-1,0.2-1.6,0.2c-0.9,0-1.6-0.2-2.2-0.5c-0.6-0.4-1.1-0.9-1.4-1.5c-0.3-0.7-0.5-1.5-0.5-2.4v0h12.6v-1.4
	c0-1.6-0.2-2.9-0.7-4.1C381.2,327.3,380.6,326.4,379.8,325.6 M369.8,330.8c0-0.7,0.2-1.3,0.5-1.8c0.3-0.6,0.8-1.1,1.4-1.4
	c0.6-0.4,1.3-0.5,2.1-0.5c0.7,0,1.4,0.2,2,0.5c0.6,0.3,1,0.8,1.3,1.3c0.3,0.6,0.5,1.2,0.5,2H369.8z"/>
<path class="st0" d="M298.5,321.2c2.7,0,4.9-2.1,4.9-4.8c0-2.8-2.1-5-4.8-5c-2.8,0-4.9,2.1-5,4.9
	C293.6,318.9,295.8,321.3,298.5,321.2"/>
<path class="st0" d="M289.4,310.8c0,0.2-0.1,0.3-0.3,0.5c-0.5,0.4-1,0.8-1.4,1.2c-0.3,0.2-0.6,0.3-0.8,0c-0.2-0.3-0.1-0.5,0.2-0.7
	c0.5-0.4,1-0.9,1.6-1.3c0.2-0.2,0.4-0.2,0.6-0.1C289.3,310.4,289.4,310.6,289.4,310.8"/>
<path class="st0" d="M284.3,309.5c0,0.3,0,0.7,0,1c0,0.3-0.2,0.5-0.5,0.5c-0.3,0-0.5-0.2-0.5-0.5c0-0.7,0-1.4,0-2.1
	c0-0.3,0.2-0.5,0.5-0.5c0.3,0,0.5,0.2,0.5,0.5C284.3,308.8,284.3,309.1,284.3,309.5"/>
<path class="st0" d="M280.8,312.1c-0.1,0.5-0.4,0.7-0.8,0.4c-0.6-0.4-1.2-1-1.8-1.5c-0.2-0.2-0.2-0.4,0-0.6c0.2-0.2,0.4-0.3,0.6-0.1
	c0.6,0.5,1.2,1,1.8,1.6C280.8,311.9,280.8,312.1,280.8,312.1"/>
<path class="st0" d="M268.4,321.8c2.8,0,5.1-2.3,5.1-5.2c0-2.9-2.2-5.2-5-5.2c-2.8,0-5,2.3-5,5.2
	C263.4,319.5,265.6,321.8,268.4,321.8"/>
<path class="st0" d="M268.4,322.9c-1.9,0-3.5,0.4-4.9,1.2c-1.4,0.8-2.5,1.9-3.2,3.4c-0.8,1.5-1.1,3.2-1.1,5.1c0,1.9,0.4,3.6,1.1,5.1
	c0.8,1.5,1.8,2.6,3.2,3.4c1.4,0.8,3,1.2,4.9,1.2c1.9,0,3.5-0.4,4.9-1.2c1.4-0.8,2.5-1.9,3.2-3.4c0.8-1.5,1.1-3.2,1.1-5.1
	c0-1.9-0.4-3.6-1.1-5.1c-0.2-0.4-0.4-0.8-0.7-1.1c0,0,0-0.1,0-0.1c-0.1-0.5,0.2-0.6,0.7-0.7c1.3-0.5,2.4-1.1,3.5-1.9
	c1.1-0.8,2-1.7,2.8-2.7c0.3-0.3,1.1-1.8,1.3-2.2c0.2-0.5,0.4-1,0.7-1.5c0.1-0.1,0.9-1.7,1.2-3.3c-0.4-1-1.2-1.5-2.4-1.6
	c-1.2,0-2,0.5-2.5,1.5c-0.5,1.2-1,2.4-1.7,3.6c-1.8,3.1-4.7,5-9.1,5.4c-0.2,0-0.3,0-0.5,0 M271.9,335.6c-0.3,0.9-0.7,1.5-1.3,2
	c-0.6,0.5-1.3,0.7-2.2,0.7c-0.9,0-1.6-0.2-2.2-0.7c-0.6-0.5-1-1.2-1.3-2c-0.3-0.9-0.4-1.8-0.4-2.9c0-1.1,0.1-2.1,0.4-2.9
	c0.3-0.9,0.7-1.5,1.3-2c0,0,0,0,0,0c0,0,0,0,0,0c0.6-0.5,1.3-0.7,2.1-0.7c0.8,0,1.5,0.2,2.1,0.7c0,0,0,0,0,0c0,0,0,0,0,0
	c0.6,0.5,1,1.2,1.3,2c0.3,0.9,0.4,1.8,0.4,2.9C272.3,333.7,272.2,334.7,271.9,335.6"/>
<path class="st0" d="M307.8,333.5v-1.4c0-1.6-0.2-3-0.7-4.2c-0.5-1.2-1.1-2.2-1.9-3c-0.8-0.8-1.8-1.4-2.8-1.8
	c-1.1-0.4-2.2-0.6-3.5-0.6c-1,0-1.8,0.1-2.7,0.3c-3.4-0.4-6-1.7-7.8-4c-0.3-0.4-0.6-0.8-0.8-1.2c-0.3-0.5-0.5-1-0.8-1.5
	c-0.4,0.9-0.8,1.8-1.3,2.7c-0.4,0.8-0.8,1.6-1.2,2.3c0,0,0.1,0.1,0.1,0.1c0.3,0.4,0.6,0.7,0.9,1c0.3,0.3,0.5,0.5,0.8,0.7
	c0,0,0.1,0.1,0.1,0.1c0,0,0.1,0,0.1,0.1l0,0c1.1,0.9,2.5,1.7,4,2.3c0.6,0.2,1,0.3,1,0.8c0,0.1-0.1,0.4-0.3,0.6
	c-0.1,0.1-0.2,0.3-0.2,0.4c-0.8,1.5-1.1,3.2-1.1,5.1c0,2,0.4,3.7,1.1,5.2c0.8,1.5,1.8,2.6,3.2,3.4c1.4,0.8,3.1,1.2,5,1.2
	c1.6,0,2.9-0.2,4.1-0.7c1.2-0.5,2.2-1.2,2.9-2c0.8-0.9,1.3-1.9,1.5-3l-4.8-0.3c-0.2,0.5-0.4,0.9-0.8,1.2c-0.3,0.3-0.8,0.6-1.2,0.7
	c-0.5,0.2-1,0.2-1.6,0.2c-0.9,0-1.6-0.2-2.3-0.6c-0.6-0.4-1.1-0.9-1.5-1.6s-0.5-1.5-0.5-2.4v0H307.8z M295.6,328.8
	c0.3-0.6,0.8-1.1,1.4-1.4c0.6-0.4,1.3-0.5,2-0.5c0.7,0,1.4,0.2,1.9,0.5s1,0.8,1.3,1.3s0.5,1.2,0.5,1.9h-7.6
	C295.1,330,295.3,329.4,295.6,328.8"/>
<path class="st10" d="M567.5,325.7c-1.4,0-2.5,0.3-3.5,1c-1,0.6-1.7,1.5-2,2.5h-0.2c-0.3-1.1-0.9-1.9-1.8-2.6
	c-0.9-0.6-2-0.9-3.2-0.9c-1.3,0-2.3,0.3-3.2,0.9c-0.9,0.6-1.5,1.5-1.9,2.6h-0.2v-3.3h-4.9v18.5h5.1v-11.1c0-0.7,0.1-1.3,0.4-1.8
	c0.3-0.5,0.6-0.9,1.1-1.2s1-0.4,1.5-0.4c0.8,0,1.5,0.3,2,0.8c0.5,0.5,0.8,1.3,0.8,2.2v11.5h5v-11.3c0-1,0.3-1.7,0.8-2.3
	c0.5-0.6,1.2-0.9,2.2-0.9c0.8,0,1.5,0.3,2,0.8c0.5,0.5,0.8,1.3,0.8,2.3v11.4h5.1V332c0-2-0.5-3.6-1.6-4.6S569.2,325.7,567.5,325.7"
	/>
<path class="st10" d="M589.9,326.7c-1.1-0.7-2.4-1.1-3.7-1.1c-1,0-1.9,0.2-2.6,0.5c-0.7,0.3-1.3,0.8-1.7,1.3c-0.4,0.5-0.8,1-1,1.5
	h-0.2v-3.1h-5v25.4h5.1v-9.9h0.2c0.2,0.5,0.6,1,1,1.5c0.4,0.5,1,0.9,1.7,1.2c0.7,0.3,1.5,0.5,2.5,0.5c1.4,0,2.7-0.4,3.8-1.1
	c1.1-0.7,2-1.8,2.7-3.2s1-3.2,1-5.2c0-2.1-0.3-3.9-1-5.3C591.9,328.5,591,327.4,589.9,326.7 M588,338c-0.3,0.8-0.7,1.5-1.3,1.9
	c-0.6,0.5-1.3,0.7-2.1,0.7c-0.8,0-1.5-0.2-2.1-0.7c-0.6-0.5-1-1.1-1.3-1.9c-0.3-0.8-0.5-1.8-0.5-2.9c0-1.1,0.2-2,0.5-2.9
	c0.3-0.8,0.7-1.4,1.3-1.9c0.6-0.4,1.3-0.7,2.1-0.7c0.8,0,1.6,0.2,2.1,0.7c0.6,0.5,1,1.1,1.3,1.9c0.3,0.8,0.4,1.7,0.4,2.8
	C588.4,336.2,588.3,337.2,588,338"/>
<rect x="595.4" y="319.8" class="st10" width="5.1" height="24.6"/>
<path class="st10" d="M637.7,330.2c-0.7-1.4-1.8-2.5-3.1-3.3c-1.4-0.8-3-1.2-4.8-1.2c-1.9,0-3.5,0.4-4.8,1.2
	c-1.4,0.8-2.4,1.9-3.1,3.3c-0.7,1.4-1.1,3.1-1.1,5c0,1.9,0.4,3.6,1.1,5c0.7,1.4,1.8,2.5,3.1,3.3c1.4,0.8,3,1.2,4.8,1.2
	c1.9,0,3.5-0.4,4.8-1.2c1.4-0.8,2.4-1.9,3.1-3.3c0.7-1.4,1.1-3.1,1.1-5C638.8,333.3,638.5,331.6,637.7,330.2 M633.2,338.1
	c-0.3,0.8-0.7,1.5-1.3,2c-0.6,0.5-1.3,0.7-2.1,0.7c-0.9,0-1.6-0.2-2.2-0.7c-0.6-0.5-1-1.1-1.3-2c-0.3-0.8-0.4-1.8-0.4-2.9
	c0-1.1,0.1-2,0.4-2.9c0.3-0.8,0.7-1.5,1.3-2c0.6-0.5,1.3-0.7,2.2-0.7c0.8,0,1.6,0.2,2.1,0.7c0.6,0.5,1,1.2,1.3,2
	c0.3,0.8,0.4,1.8,0.4,2.9C633.6,336.3,633.5,337.2,633.2,338.1"/>
<path class="st10" d="M449.6,344.8c-1.9,0-3.5-0.4-4.9-1.2c-1.4-0.8-2.4-1.9-3.2-3.3c-0.7-1.4-1.1-3.1-1.1-5.1c0-1.9,0.4-3.6,1.1-5
	c0.7-1.4,1.8-2.6,3.1-3.4c1.3-0.8,2.9-1.2,4.7-1.2c1.2,0,2.4,0.2,3.4,0.6c1.1,0.4,2,1,2.8,1.7s1.4,1.8,1.8,2.9
	c0.4,1.2,0.7,2.5,0.7,4.1v1.4h-15.6v-3.2h10.8c0-0.7-0.2-1.4-0.5-2c-0.3-0.6-0.8-1-1.3-1.3c-0.6-0.3-1.2-0.5-2-0.5
	c-0.8,0-1.5,0.2-2.1,0.5c-0.6,0.4-1.1,0.8-1.4,1.4c-0.3,0.6-0.5,1.3-0.5,2v3c0,0.9,0.2,1.7,0.5,2.4c0.3,0.7,0.8,1.2,1.4,1.5
	c0.6,0.4,1.4,0.5,2.2,0.5c0.6,0,1.1-0.1,1.6-0.2c0.5-0.2,0.9-0.4,1.2-0.7c0.3-0.3,0.6-0.7,0.8-1.2l4.7,0.3c-0.2,1.1-0.7,2.1-1.5,3
	c-0.7,0.8-1.7,1.5-2.9,2C452.4,344.6,451.1,344.8,449.6,344.8"/>
<polygon class="st10" points="464,326 467.3,332.4 470.8,326 476.1,326 470.7,335.2 476.2,344.5 471,344.5 467.3,338.1 463.8,344.5 
	458.5,344.5 464,335.2 458.7,326 "/>
<path class="st10" d="M477.4,351.4V326h5v3.1h0.2c0.2-0.5,0.6-1,1-1.5c0.4-0.5,1-0.9,1.7-1.3c0.7-0.3,1.6-0.5,2.6-0.5
	c1.3,0,2.6,0.4,3.7,1.1c1.1,0.7,2,1.8,2.7,3.2c0.7,1.4,1,3.2,1,5.3c0,2.1-0.3,3.8-1,5.2c-0.7,1.4-1.6,2.5-2.7,3.2
	c-1.1,0.7-2.4,1.1-3.8,1.1c-1,0-1.8-0.2-2.5-0.5c-0.7-0.3-1.3-0.7-1.7-1.2c-0.4-0.5-0.8-1-1-1.5h-0.2v9.9H477.4z M482.4,335.2
	c0,1.1,0.2,2.1,0.5,2.9c0.3,0.8,0.7,1.5,1.3,1.9c0.6,0.5,1.3,0.7,2.1,0.7c0.8,0,1.5-0.2,2.1-0.7c0.6-0.5,1-1.1,1.3-1.9
	c0.3-0.8,0.5-1.8,0.5-2.8c0-1.1-0.1-2-0.4-2.8c-0.3-0.8-0.7-1.4-1.3-1.9c-0.6-0.5-1.3-0.7-2.1-0.7c-0.8,0-1.5,0.2-2.1,0.7
	c-0.6,0.4-1,1.1-1.3,1.9C482.6,333.2,482.4,334.1,482.4,335.2"/>
<path class="st10" d="M616.9,328c-0.8-0.8-1.7-1.4-2.8-1.7c-1.1-0.4-2.2-0.6-3.4-0.6c-1.8,0-3.4,0.4-4.7,1.2
	c-1.3,0.8-2.4,1.9-3.1,3.4c-0.7,1.4-1.1,3.1-1.1,5c0,1.9,0.4,3.6,1.1,5.1c0.7,1.4,1.8,2.5,3.2,3.3c1.4,0.8,3,1.2,4.9,1.2
	c1.5,0,2.9-0.2,4-0.7c1.2-0.5,2.1-1.1,2.9-2c0.7-0.8,1.2-1.8,1.5-3l-4.7-0.3c-0.2,0.5-0.4,0.9-0.8,1.2c-0.3,0.3-0.7,0.6-1.2,0.7
	c-0.5,0.2-1,0.2-1.6,0.2c-0.9,0-1.6-0.2-2.2-0.5c-0.6-0.4-1.1-0.9-1.4-1.5c-0.3-0.7-0.5-1.5-0.5-2.4v0h12.6V335
	c0-1.6-0.2-2.9-0.7-4.1C618.3,329.8,617.7,328.8,616.9,328 M606.8,333.3c0-0.7,0.2-1.3,0.5-1.8c0.3-0.6,0.8-1.1,1.4-1.4
	c0.6-0.4,1.3-0.5,2.1-0.5c0.7,0,1.4,0.2,2,0.5c0.6,0.3,1,0.8,1.3,1.3c0.3,0.6,0.5,1.2,0.5,2H606.8z"/>
<path class="st10" d="M535.6,323.6c2.7,0,4.9-2.1,4.9-4.8c0-2.8-2.1-5-4.8-5c-2.8,0-4.9,2.1-5,4.9
	C530.7,321.3,532.9,323.7,535.6,323.6"/>
<path class="st10" d="M526.4,313.2c0,0.2-0.1,0.3-0.3,0.5c-0.5,0.4-1,0.8-1.4,1.2c-0.3,0.2-0.6,0.3-0.8,0c-0.2-0.3-0.1-0.5,0.2-0.7
	c0.5-0.4,1-0.9,1.6-1.3c0.2-0.2,0.4-0.2,0.6-0.1C526.4,312.9,526.4,313,526.4,313.2"/>
<path class="st10" d="M521.3,311.9c0,0.3,0,0.7,0,1c0,0.3-0.2,0.5-0.5,0.5c-0.3,0-0.5-0.2-0.5-0.5c0-0.7,0-1.4,0-2.1
	c0-0.3,0.2-0.5,0.5-0.5c0.3,0,0.5,0.2,0.5,0.5C521.4,311.2,521.3,311.6,521.3,311.9"/>
<path class="st10" d="M517.9,314.6c-0.1,0.5-0.4,0.7-0.8,0.4c-0.6-0.4-1.2-1-1.8-1.5c-0.2-0.2-0.2-0.4,0-0.6
	c0.2-0.2,0.4-0.3,0.6-0.1c0.6,0.5,1.2,1,1.8,1.6C517.9,314.4,517.9,314.5,517.9,314.6"/>
<path class="st10" d="M505.4,324.2c2.8,0,5.1-2.3,5.1-5.2c0-2.9-2.2-5.2-5-5.2c-2.8,0-5,2.3-5,5.2
	C500.5,321.9,502.7,324.2,505.4,324.2"/>
<path class="st10" d="M505.5,325.4c-1.9,0-3.5,0.4-4.9,1.2c-1.4,0.8-2.5,1.9-3.2,3.4c-0.8,1.5-1.1,3.2-1.1,5.1
	c0,1.9,0.4,3.6,1.1,5.1c0.8,1.5,1.8,2.6,3.2,3.4c1.4,0.8,3,1.2,4.9,1.2c1.9,0,3.5-0.4,4.9-1.2c1.4-0.8,2.5-1.9,3.2-3.4
	c0.8-1.5,1.1-3.2,1.1-5.1c0-1.9-0.4-3.6-1.1-5.1c-0.2-0.4-0.5-0.8-0.7-1.1c0,0,0-0.1,0-0.1c-0.1-0.5,0.2-0.6,0.7-0.7
	c1.3-0.5,2.4-1.1,3.5-1.9c1.1-0.8,2-1.7,2.8-2.7c0.3-0.3,1.1-1.8,1.3-2.2c0.2-0.5,0.4-1,0.7-1.5c0.1-0.1,0.9-1.7,1.2-3.3
	c-0.4-1-1.2-1.5-2.4-1.6c-1.2,0-2,0.5-2.5,1.5c-0.5,1.2-1,2.4-1.7,3.6c-1.8,3.1-4.7,5-9.1,5.4c-0.2,0-0.3,0-0.5,0 M509,338
	c-0.3,0.9-0.7,1.5-1.3,2c-0.6,0.5-1.3,0.7-2.2,0.7c-0.9,0-1.6-0.2-2.2-0.7c-0.6-0.5-1-1.2-1.3-2c-0.3-0.9-0.4-1.8-0.4-2.9
	c0-1.1,0.1-2.1,0.4-2.9c0.3-0.9,0.7-1.5,1.3-2c0,0,0,0,0,0c0,0,0,0,0,0c0.6-0.5,1.3-0.7,2.1-0.7c0.8,0,1.5,0.2,2.1,0.7c0,0,0,0,0,0
	c0,0,0,0,0,0c0.6,0.5,1,1.2,1.3,2c0.3,0.9,0.4,1.8,0.4,2.9C509.4,336.2,509.3,337.2,509,338"/>
<path class="st10" d="M544.9,335.9v-1.4c0-1.6-0.2-3-0.7-4.2c-0.5-1.2-1.1-2.2-1.9-3c-0.8-0.8-1.8-1.4-2.8-1.8
	c-1.1-0.4-2.2-0.6-3.5-0.6c-1,0-1.8,0.1-2.7,0.3c-3.4-0.4-6-1.7-7.8-4c-0.3-0.4-0.6-0.8-0.8-1.2c-0.3-0.5-0.5-1-0.8-1.5
	c-0.4,0.9-0.8,1.8-1.3,2.7c-0.4,0.8-0.8,1.6-1.2,2.3c0,0,0.1,0.1,0.1,0.1c0.3,0.4,0.6,0.7,0.9,1c0.3,0.3,0.5,0.5,0.8,0.7
	c0,0,0.1,0.1,0.1,0.1c0,0,0.1,0,0.1,0.1l0,0c1.1,0.9,2.5,1.7,4,2.3c0.6,0.2,1,0.3,1,0.8c0,0.1-0.1,0.4-0.3,0.6
	c-0.1,0.1-0.2,0.3-0.2,0.4c-0.8,1.5-1.1,3.2-1.1,5.1c0,2,0.4,3.7,1.1,5.2c0.8,1.5,1.8,2.6,3.2,3.4c1.4,0.8,3.1,1.2,5,1.2
	c1.6,0,2.9-0.2,4.1-0.7c1.2-0.5,2.2-1.2,2.9-2c0.8-0.9,1.3-1.9,1.5-3l-4.8-0.3c-0.2,0.5-0.4,0.9-0.8,1.2c-0.3,0.3-0.8,0.6-1.2,0.7
	c-0.5,0.2-1,0.2-1.6,0.2c-0.9,0-1.6-0.2-2.3-0.6c-0.6-0.4-1.1-0.9-1.5-1.6c-0.3-0.7-0.5-1.5-0.5-2.4v0H544.9z M532.6,331.3
	c0.3-0.6,0.8-1.1,1.4-1.4c0.6-0.4,1.3-0.5,2-0.5c0.7,0,1.4,0.2,1.9,0.5c0.6,0.3,1,0.8,1.3,1.3c0.3,0.6,0.5,1.2,0.5,1.9h-7.6
	C532.2,332.4,532.3,331.8,532.6,331.3"/>
</svg>
