<?xml version="1.0" encoding="UTF-8"?>
<svg id="Capa_1" data-name="Capa 1" xmlns="http://www.w3.org/2000/svg" viewBox="0 0 55.97 61.93">
  <defs>
    <style>
      .cls-1 {
        fill: #f4ce00;
      }

      .cls-2 {
        fill: #3c3c3c;
      }
    </style>
  </defs>
  <path class="cls-1" d="m55.97,30.94c0-3.17-1.77-6.07-4.59-7.51L12.73,1.18C8.72-1.2,3.55.13,1.17,4.14.4,5.45,0,6.93,0,8.45v45.04c0,4.66,3.77,8.44,8.43,8.44,1.61,0,3.18-.45,4.53-1.32h0l38.4-22.15h0c2.83-1.45,4.61-4.35,4.61-7.52"/>
  <g>
    <path class="cls-2" d="m19.73,25.61c-1.17-1.46-2.95-2.3-4.82-2.28-1.4-.13-2.77.42-3.7,1.46.01-.52-.22-1.01-.63-1.33-.41-.33-.92-.51-1.45-.5-.51-.02-1,.16-1.38.5-.44.4-.67.98-.64,1.57v18.28c-.04.63.18,1.24.61,1.7.39.38.92.59,1.46.58.58.01,1.13-.19,1.57-.57.44-.38.69-.94.67-1.53v-5.99c1.03.7,2.24,1.07,3.48,1.06,1.94.09,3.8-.78,4.97-2.32,1.12-1.48,1.69-3.3,1.62-5.15.05-1.98-.57-3.92-1.77-5.49m-3.06,7.77c-.48.71-1.29,1.12-2.15,1.1-.91.03-1.77-.39-2.3-1.12-1.05-1.48-1.06-3.45-.03-4.94.55-.73,1.42-1.15,2.33-1.12.86-.01,1.66.42,2.12,1.15.49.75.74,1.64.72,2.53.03.85-.21,1.69-.69,2.4"/>
    <path class="cls-2" d="m39.38,23.52c-4.01,0-7.26,3.25-7.26,7.26,0,4.01,3.25,7.26,7.26,7.26,4.01,0,7.26-3.25,7.26-7.26,0-4.01-3.25-7.26-7.26-7.26h0m0,10.7c-1.9,0-3.43-1.54-3.43-3.43s1.54-3.43,3.43-3.43,3.43,1.54,3.43,3.43-1.54,3.43-3.43,3.43h0"/>
    <path class="cls-2" d="m30.6,23.26c-1.33-.12-2.63.48-3.41,1.58-.18-1.17-1.27-1.97-2.43-1.79-1.05.16-1.82,1.06-1.82,2.12v11.31c0,1.18.96,2.14,2.14,2.14s2.14-.96,2.14-2.14v-7.06c-.04-.84.52-1.59,1.34-1.8.59-.13,1.2-.15,1.8-.08,1.17-.02,2.12-.97,2.14-2.14,0-1.09-.82-2-1.9-2.12"/>
  </g>
</svg>