<?xml version="1.0" encoding="UTF-8"?>
<!DOCTYPE svg PUBLIC "-//W3C//DTD SVG 1.1//EN" "http://www.w3.org/Graphics/SVG/1.1/DTD/svg11.dtd">
<!-- Creator: CorelDRAW X8 -->
<svg xmlns="http://www.w3.org/2000/svg" xml:space="preserve" width="211.667mm" height="105.833mm" version="1.1" style="shape-rendering:geometricPrecision; text-rendering:geometricPrecision; image-rendering:optimizeQuality; fill-rule:evenodd; clip-rule:evenodd"
viewBox="0 0 21167 10583"
 xmlns:xlink="http://www.w3.org/1999/xlink">
 <defs>
  <style type="text/css">
   <![CDATA[
    .fil0 {fill:#535355}
    .fil1 {fill:#EEDD13}
   ]]>
  </style>
 </defs>
 <g id="Capa_x0020_1">
  <metadata id="CorelCorpID_0Corel-Layer"/>
  <g id="_2438115778192">
   <path class="fil0" d="M15395 7144c-55,0 -103,12 -144,36 -41,24 -73,59 -96,103 -13,26 -23,55 -28,86l538 0c-5,-32 -14,-61 -28,-87 -24,-44 -56,-78 -97,-102 -42,-24 -90,-36 -145,-36zm-3659 587l0 -114 -199 0c-74,0 -126,12 -156,36 -30,24 -45,57 -45,97 0,40 15,73 46,97 31,24 73,36 126,36 50,0 96,-12 137,-37 42,-25 72,-64 91,-115zm-4347 115c41,-25 72,-64 91,-115l0 -114 -199 0c-74,0 -126,12 -156,36 -30,24 -45,57 -45,97 0,40 15,73 46,97 31,24 73,36 126,36 50,0 96,-12 137,-37zm4957 -3566c-50,92 -75,204 -75,336 0,132 25,246 75,341 50,95 116,167 198,215 82,49 175,73 278,73 106,0 201,-24 283,-73 82,-48 147,-120 196,-215 48,-95 72,-209 72,-341 0,-132 -24,-244 -72,-336 -49,-92 -114,-162 -196,-210 -82,-49 -177,-73 -283,-73 -103,0 -196,24 -278,73 -82,48 -148,118 -198,210zm-5312 -980l0 992 432 0c200,0 349,-44 448,-131 98,-87 147,-208 147,-362 0,-158 -49,-281 -147,-368 -99,-87 -248,-131 -448,-131l-432 0zm-1851 2373c-223,218 -547,326 -972,326 -249,0 -474,-42 -675,-128 -202,-85 -388,-246 -521,-407l543 -582c90,116 183,204 280,264 97,59 198,89 305,89 284,0 425,-164 425,-493l0 -728 0 -728 0 -740 948 0 0 2138c0,442 -111,771 -333,989zm894 259l0 -3386 1447 0c310,0 577,50 801,150 224,100 397,244 520,433 122,188 184,412 184,670 0,254 -62,475 -184,662 -123,187 -296,332 -520,433 -224,102 -491,153 -801,153l-490 0 0 885 -957 0zm-319 2255c-139,0 -273,-18 -402,-53 -128,-34 -313,-126 -393,-181l237 -307c76,48 164,88 263,120 100,31 199,47 297,47 67,0 120,-6 160,-18 41,-12 70,-28 89,-49 19,-20 28,-44 28,-71 0,-39 -18,-70 -54,-92 -35,-23 -81,-42 -138,-56 -56,-15 -119,-29 -188,-44 -69,-14 -137,-33 -206,-56 -69,-22 -131,-52 -188,-88 -57,-37 -103,-84 -138,-143 -36,-59 -54,-134 -54,-225 0,-102 28,-194 84,-276 56,-83 140,-149 251,-199 112,-50 251,-75 417,-75 112,0 222,12 329,37 108,25 203,62 288,111l-201 329c-81,-44 -108,-49 -188,-71 -79,-22 -156,-33 -230,-33 -66,0 -120,7 -160,21 -41,14 -70,32 -88,54 -17,23 -26,49 -26,78 0,37 17,67 52,89 35,21 81,39 138,53 58,14 121,28 189,42 69,15 138,33 207,55 68,22 131,51 188,87 56,37 102,84 137,143 34,59 52,133 52,222 0,99 -28,190 -84,273 -56,84 -139,150 -250,200 -110,51 -250,76 -418,76zm1099 -66c-73,-35 -128,-84 -166,-145 -38,-62 -57,-131 -57,-207 0,-81 20,-150 61,-209 42,-59 105,-105 191,-136 86,-32 196,-48 332,-48l262 0c-4,-63 -26,-113 -67,-149 -44,-39 -115,-59 -212,-59 -63,0 -127,10 -191,30 -65,20 -120,48 -165,84l-156 -313c75,-49 164,-86 268,-113 105,-27 209,-40 312,-40 214,0 379,49 496,147 117,98 176,251 176,459l0 731 -429 0 0 -170c-27,51 -64,91 -111,122 -70,46 -163,69 -277,69 -106,0 -194,-17 -267,-53zm1355 32l0 -1315 439 0 0 143c36,-37 76,-69 122,-93 87,-48 186,-72 295,-72 102,0 195,21 277,62 83,41 148,105 195,190 48,86 72,197 72,333l0 752 -461 0 0 -677c0,-94 -19,-162 -57,-205 -38,-43 -91,-64 -159,-64 -48,0 -93,10 -133,32 -41,22 -72,56 -95,101 -23,45 -34,104 -34,177l0 636 -461 0zm2276 21c-169,0 -300,-41 -393,-124 -94,-84 -141,-209 -141,-378l0 -441 -192 0 0 -345 192 0 0 -342 461 0 0 342 301 0 0 345 -301 0 0 436c0,47 13,84 39,111 25,27 59,40 99,40 55,0 102,-14 141,-41l0 372c-10,3 -19,5 -29,7 -57,12 -116,18 -177,18zm625 -53c-73,-35 -128,-84 -166,-145 -38,-62 -57,-131 -57,-207 0,-81 20,-150 62,-209 41,-59 104,-105 190,-136 86,-32 196,-48 332,-48l262 0c-4,-63 -26,-113 -66,-149 -45,-39 -116,-59 -213,-59 -63,0 -127,10 -191,30 -65,20 -120,48 -165,84l-156 -313c75,-49 164,-86 269,-113 104,-27 208,-40 311,-40 214,0 379,49 496,147 118,98 176,251 176,459l0 731 -429 0 0 -170c-27,51 -63,91 -111,122 -70,46 -163,69 -277,69 -105,0 -194,-17 -267,-53zm2123 32l0 -1698 1332 0 0 371 -852 0 0 373 750 0 0 371 -750 0 0 583 -480 0zm2205 21c-155,0 -290,-29 -406,-88 -116,-59 -205,-140 -269,-243 -64,-102 -96,-219 -96,-350 0,-131 31,-248 93,-351 63,-102 149,-182 259,-240 110,-57 233,-86 371,-86 129,0 247,26 354,79 107,52 192,130 255,232 63,101 94,225 94,371 0,16 -1,34 -2,55l-5 59 -955 0c7,23 16,45 27,65 27,47 65,83 115,108 51,25 110,38 180,38 65,0 120,-10 166,-28 46,-19 92,-47 137,-86l243 252c-63,70 -141,122 -233,159 -92,36 -202,54 -328,54zm-6045 -2242l0 -2622 875 0 0 478c172,-260 468,-531 880,-521l0 990c-189,-29 -527,36 -662,155 -116,101 -174,267 -174,495l0 1025 -919 0zm3426 43c-287,0 -542,-58 -764,-174 -223,-116 -398,-276 -525,-481 -127,-205 -191,-440 -191,-704 0,-264 64,-498 191,-701 127,-203 302,-362 525,-477 222,-114 477,-171 764,-171 287,0 543,57 767,171 224,115 399,274 524,477 126,203 189,437 189,701 0,264 -63,499 -189,704 -125,205 -300,365 -524,481 -224,116 -480,174 -767,174z"/>
   <path class="fil1" d="M14893 4204l0 -1315c0,-180 89,-335 245,-425 156,-90 334,-90 490,0l1139 658 1139 658c156,90 245,244 245,424 0,180 -89,334 -245,424l-1139 658 -1139 658c-156,90 -334,90 -490,0 -156,-90 -245,-245 -245,-425l0 -1315z"/>
  </g>
 </g>
</svg>
