<?xml version="1.0" ?>
<!-- Uploaded to: SVG Repo, www.svgrepo.com, Generator: SVG Repo Mixer Tools -->
<svg width="800px" height="800px" viewBox="0 0 24 24" version="1.1" xml:space="preserve" xmlns="http://www.w3.org/2000/svg" xmlns:xlink="http://www.w3.org/1999/xlink">
<style type="text/css">
	.st0{opacity:0.2;fill:none;stroke:#000000;stroke-width:5.000000e-02;stroke-miterlimit:10;}
</style>
<g id="grid_system"/>
<g id="_icons">
<path d="M8.2,21h7.7c2.8,0,5.2-2.3,5.2-5.2V8.2C21,5.3,18.7,3,15.8,3H8.2C5.3,3,3,5.3,3,8.2v7.7C3,18.7,5.3,21,8.2,21z M8.2,5H11v1   c0,0.6,0.4,1,1,1s1-0.4,1-1V5h2.8C17.6,5,19,6.4,19,8.2V11h-1c-0.6,0-1,0.4-1,1s0.4,1,1,1h1v2.8c0,1.7-1.4,3.2-3.2,3.2H13v-1   c0-0.6-0.4-1-1-1s-1,0.4-1,1v1H8.2C6.4,19,5,17.6,5,15.8V13h1c0.6,0,1-0.4,1-1s-0.4-1-1-1H5V8.2C5,6.4,6.4,5,8.2,5z"/>
<path d="M12.1,14.4c0.2,0.4,0.5,0.6,0.9,0.6c0.1,0,0.3,0,0.4-0.1c0.5-0.2,0.7-0.8,0.4-1.3l-0.7-1.4l2.5-2.5c0.4-0.4,0.4-1,0-1.4   s-1-0.4-1.4,0l-3,3c-0.3,0.3-0.4,0.8-0.2,1.2L12.1,14.4z"/>
</g>
</svg>