<?xml version="1.0" encoding="iso-8859-1"?>
<!-- Uploaded to: SVG Repo, www.svgrepo.com, Generator: SVG Repo Mixer Tools -->
<svg fill="#000000" version="1.1" id="Capa_1" xmlns="http://www.w3.org/2000/svg" xmlns:xlink="http://www.w3.org/1999/xlink" 
	 viewBox="0 0 56 56" xml:space="preserve">
<g>
	<g>
	</g>
	<g>
		<path d="M24,16c3.309,0,6-2.691,6-6s-2.691-6-6-6s-6,2.691-6,6S20.691,16,24,16z M24,6c2.206,0,4,1.794,4,4s-1.794,4-4,4
			s-4-1.794-4-4S21.794,6,24,6z"/>
		<path d="M7.586,14l3.707,3.707C11.484,17.898,11.74,18,12,18c0.129,0,0.259-0.024,0.383-0.076C12.756,17.77,13,17.404,13,17v-3
			c1.654,0,3-1.346,3-3V7c0-1.654-1.346-3-3-3H3C1.346,4,0,5.346,0,7v4c0,1.654,1.346,3,3,3H7.586z M2,11V7c0-0.552,0.449-1,1-1h10
			c0.551,0,1,0.448,1,1v4c0,0.552-0.449,1-1,1h-1c-0.552,0-1,0.447-1,1v1.586l-2.293-2.293C8.52,12.105,8.265,12,8,12H3
			C2.449,12,2,11.552,2,11z"/>
		<rect x="4" y="8" width="8" height="2"/>
		<path d="M51,0H38c-2.757,0-5,2.243-5,5v11.532L27.86,18H18c-2.757,0-5,2.243-5,5v8H9v2h29v-2h-7v-6.341l2.078-0.89
			C33.451,26.159,35.506,28,38,28h13c2.757,0,5-2.243,5-5V5C56,2.243,53.757,0,51,0z M29.606,23.081C29.238,23.238,29,23.6,29,24v7
			h-4v-7h1v-2h-4v2h1v7h-4v-7h-2v7h-2v-8c0-1.654,1.346-3,3-3h10c0.093,0,0.186-0.013,0.275-0.038l7-2
			c0.228-0.065,0.425-0.21,0.557-0.407l3.323-4.985l1.539,1.539l-4.345,6.083L29.606,23.081z M54,23c0,1.654-1.346,3-3,3H38
			c-1.654,0-3-1.346-3-3h-0.128l2.523-1.081c0.168-0.072,0.313-0.188,0.42-0.338l5-7c0.284-0.397,0.239-0.942-0.107-1.288l-3-3
			c-0.212-0.212-0.506-0.313-0.806-0.288c-0.298,0.029-0.567,0.191-0.733,0.44L35,15.198V5c0-1.654,1.346-3,3-3h13
			c1.654,0,3,1.346,3,3V23z"/>
		<rect x="38" y="5" width="13" height="2"/>
		<rect x="43" y="9" width="8" height="2"/>
		<rect x="45" y="13" width="6" height="2"/>
		<rect x="43" y="17" width="8" height="2"/>
		<rect x="40" y="21" width="11" height="2"/>
		<path d="M31,49h-6c-2.757,0-5,2.243-5,5v2h2v-2c0-1.654,1.346-3,3-3h6c1.654,0,3,1.346,3,3v2h2v-2C36,51.243,33.757,49,31,49z"/>
		<path d="M49,49h-6c-2.757,0-5,2.243-5,5v2h2v-2c0-1.654,1.346-3,3-3h6c1.654,0,3,1.346,3,3v2h2v-2C54,51.243,51.757,49,49,49z"/>
		<path d="M13,49H7c-2.757,0-5,2.243-5,5v2h2v-2c0-1.654,1.346-3,3-3h6c1.654,0,3,1.346,3,3v2h2v-2C18,51.243,15.757,49,13,49z"/>
		<rect x="40" y="31" width="2" height="2"/>
		<path d="M6,43c0,2.206,1.794,4,4,4s4-1.794,4-4v-1h2v-2h-2.142c-0.447-1.721-2-3-3.858-3c-2.206,0-4,1.794-4,4V43z M12,43
			c0,1.103-0.897,2-2,2s-2-0.897-2-2v-1h4V43z M10,39c0.737,0,1.375,0.405,1.722,1H8.279C8.625,39.405,9.263,39,10,39z"/>
		<path d="M28,47c2.206,0,4-1.794,4-4v-1h2v-2h-2.142c-0.447-1.721-2-3-3.858-3c-2.206,0-4,1.794-4,4v2C24,45.206,25.794,47,28,47z
			 M30,43c0,1.103-0.897,2-2,2s-2-0.897-2-2v-1h4V43z M28,39c0.737,0,1.375,0.405,1.722,1h-3.443C26.625,39.405,27.263,39,28,39z"/>
		<path d="M42,43c0,2.206,1.794,4,4,4s4-1.794,4-4v-1h2v-2h-2.142c-0.447-1.721-2-3-3.858-3c-2.206,0-4,1.794-4,4V43z M48,43
			c0,1.103-0.897,2-2,2s-2-0.897-2-2v-1h4V43z M46,39c0.737,0,1.375,0.405,1.722,1h-3.443C44.625,39.405,45.263,39,46,39z"/>
	</g>
</g>
</svg>