<?xml version='1.0' encoding='iso-8859-1'?>
<!DOCTYPE svg PUBLIC '-//W3C//DTD SVG 1.1//EN' 'http://www.w3.org/Graphics/SVG/1.1/DTD/svg11.dtd'>
<!-- Uploaded to: SVG Repo, www.svgrepo.com, Generator: SVG Repo Mixer Tools -->
<svg fill="#000000" height="800px" width="800px" version="1.1" xmlns="http://www.w3.org/2000/svg" viewBox="0 0 297 297" xmlns:xlink="http://www.w3.org/1999/xlink" enable-background="new 0 0 297 297">
  <g>
    <path d="m99.305,96.044l34.964-15.236 5.921,13.589c0.9,2.065 2.583,3.688 4.679,4.512 0.999,0.392 2.054,0.588 3.107,0.588 1.156,0 2.312-0.236 3.393-0.707l45.327-19.752-4.561,11.606c-1.715,4.366 0.433,9.295 4.799,11.011 1.02,0.401 2.071,0.59 3.104,0.59 3.389,0 6.592-2.043 7.907-5.389l12.06-30.688c1.715-4.365-0.432-9.295-4.798-11.011l-30.688-12.061c-4.365-1.716-9.295,0.432-11.012,4.798-1.715,4.366 0.432,9.296 4.798,11.012l11.606,4.561-37.541,16.359-5.921-13.589c-0.9-2.065-2.583-3.688-4.679-4.512-2.097-0.824-4.434-0.782-6.5,0.119l-42.75,18.628c-4.3,1.873-6.267,6.878-4.393,11.179 1.874,4.301 6.88,6.269 11.178,4.393z"/>
    <path d="m148.5,120.603c-19.055,0-34.558,15.503-34.558,34.558s15.503,34.558 34.558,34.558 34.558-15.503 34.558-34.558-15.503-34.558-34.558-34.558zm0,52.13c-9.689,0-17.572-7.882-17.572-17.572 0-9.689 7.882-17.572 17.572-17.572s17.572,7.882 17.572,17.572c0,9.69-7.883,17.572-17.572,17.572z"/>
    <path d="m54.84,216.353c15.224,0 27.61-12.387 27.61-27.611 0-15.224-12.386-27.61-27.61-27.61s-27.611,12.386-27.611,27.61c-3.55271e-15,15.225 12.387,27.611 27.611,27.611zm0-38.234c5.858,0 10.623,4.766 10.623,10.623 0,5.859-4.766,10.624-10.623,10.624-5.859,0-10.624-4.766-10.624-10.624-7.10543e-15-5.857 4.765-10.623 10.624-10.623z"/>
    <path d="m242.16,216.353c15.224,0 27.611-12.387 27.611-27.611 0-15.224-12.387-27.61-27.611-27.61s-27.61,12.386-27.61,27.61c0.001,15.225 12.386,27.611 27.61,27.611zm0-38.234c5.859,0 10.624,4.766 10.624,10.623 0,5.859-4.766,10.624-10.624,10.624-5.858,0-10.623-4.766-10.623-10.624 0-5.857 4.766-10.623 10.623-10.623z"/>
    <path d="m280.394,289.634c4.691,0 8.493-3.803 8.493-8.493v-24.5c4.513-0.2 8.113-3.912 8.113-8.474v-232.308c0-4.691-3.803-8.493-8.493-8.493h-280.014c-4.69,0-8.493,3.802-8.493,8.493v232.309c0,4.562 3.6,8.274 8.113,8.474v24.5c0,4.691 3.803,8.493 8.493,8.493h263.788zm-.38-265.283v199.258c-2.778-2.548-6.098-4.559-9.843-5.806-0.064-0.021-0.129-0.043-0.194-0.062l-6.746-2.07c-1.941-0.595-4.028-0.476-5.889,0.336l-15.182,6.627-15.182-6.627c-1.861-0.812-3.951-0.931-5.889-0.336l-6.745,2.07c-0.065,0.02-0.13,0.04-0.194,0.061-2.278,0.759-4.395,1.809-6.336,3.079-3.023-10.721-11.142-19.518-22.098-23.17-0.064-0.021-0.13-0.043-0.195-0.062l-9.197-2.822c-1.941-0.595-4.028-0.476-5.889,0.336l-21.936,9.575-21.936-9.575c-1.86-0.812-3.951-0.931-5.889-0.336l-9.197,2.822c-0.065,0.02-0.131,0.041-0.195,0.062-10.956,3.652-19.075,12.449-22.098,23.17-1.942-1.27-4.058-2.319-6.336-3.079-0.064-0.021-0.129-0.042-0.194-0.061l-6.745-2.07c-1.938-0.595-4.029-0.476-5.889,0.336l-15.182,6.627-15.182-6.627c-1.861-0.812-3.951-0.931-5.889-0.336l-6.746,2.07c-0.065,0.02-0.13,0.041-0.194,0.062-3.744,1.248-7.064,3.258-9.843,5.806v-199.258h263.03zm-195.434,248.296h-59.481v-28.878c-3.55271e-15-4.449 2.817-8.385 7.019-9.824l3.627-1.113 15.697,6.852c2.166,0.947 4.629,0.947 6.795,0l15.697-6.851 3.626,1.112c4.202,1.438 7.019,5.376 7.019,9.824v28.878zm107.558,0h-87.274v-42.461c0-7.404 4.7-13.956 11.706-16.333l6.082-1.866 22.451,9.8c2.166,0.947 4.629,0.947 6.795,0l22.451-9.8 6.082,1.866c7.006,2.377 11.706,8.928 11.706,16.333v42.461zm79.765,0h-59.481v-28.878c0-4.449 2.817-8.386 7.019-9.824l3.626-1.112 15.697,6.851c2.166,0.947 4.629,0.947 6.795,0l15.697-6.852 3.627,1.113c4.202,1.439 7.019,5.376 7.019,9.824v28.878z"/>
  </g>
</svg>