<?xml version="1.0" encoding="iso-8859-1"?>
<!-- Uploaded to: SVG Repo, www.svgrepo.com, Generator: SVG Repo Mixer Tools -->
<svg fill="#000000" height="800px" width="800px" version="1.1" id="Layer_1" xmlns="http://www.w3.org/2000/svg" xmlns:xlink="http://www.w3.org/1999/xlink" 
	 viewBox="0 0 512.001 512.001" xml:space="preserve">
<g>
	<g>
		<path d="M123.864,218.429H50.477c-4.496,0-8.141,3.644-8.141,8.141s3.645,8.141,8.141,8.141h73.387
			c4.497,0,8.141-3.644,8.141-8.141S128.361,218.429,123.864,218.429z"/>
	</g>
</g>
<g>
	<g>
		<path d="M131.001,191.491H57.613c-4.497,0-8.141,3.644-8.141,8.141c0,4.497,3.644,8.141,8.141,8.141H131
			c4.496,0,8.141-3.644,8.141-8.141C139.142,195.135,135.496,191.491,131.001,191.491z"/>
	</g>
</g>
<g>
	<g>
		<path d="M131.001,245.369H57.613c-4.497,0-8.141,3.644-8.141,8.141c0,4.497,3.644,8.141,8.141,8.141H131
			c4.496,0,8.141-3.644,8.141-8.141C139.142,249.013,135.496,245.369,131.001,245.369z"/>
	</g>
</g>
<g>
	<g>
		<path d="M480.828,106.752c-20.844-33.317-48.959-51.667-79.164-51.667c-18.129,0-35.503,6.617-51.006,19.106
			c-56.045,19.227-144.645,42.941-251.07,47.974C43.745,124.805,0,170.665,0,226.571c0,53.719,40.392,98.156,93.098,103.893v79.428
			c0,25.93,21.095,47.024,47.024,47.024c25.929,0,47.024-21.095,47.024-47.024v-12.338c25.158-3.415,44.821-24.353,46.232-50.085
			c47.076,9.363,86.95,21.076,117.282,31.482c15.502,12.488,32.876,19.105,51.004,19.105c30.205,0,58.32-18.348,79.164-51.666
			c20.102-32.129,31.172-74.682,31.172-119.82C512,181.434,500.93,138.881,480.828,106.752z M170.862,409.892
			c0,16.951-13.791,30.741-30.741,30.741c-16.95,0-30.741-13.79-30.741-30.741v-78.389c2.417,0.142,4.839,0.296,7.262,0.459
			c0.149,0.01,0.3,0.018,0.449,0.029c2.457,0.166,4.916,0.344,7.378,0.531c0.128,0.01,0.256,0.02,0.384,0.029
			c15.297,1.171,30.685,2.749,46.007,4.719v52.645h0.001V409.892z M217.18,344.505c0,18.075-12.935,33.187-30.035,36.565v-41.544
			c10.027,1.473,20.079,3.12,30.035,4.917V344.505z M111.744,315.334c-0.185-0.011-0.369-0.023-0.554-0.034
			c-3.593-0.214-7.198-0.415-10.832-0.586c-47.144-2.231-84.075-40.947-84.075-88.144s36.931-85.913,84.075-88.141
			c91.967-4.349,170.87-22.402,227.519-39.733c-4.534,6.319-8.696,13.196-12.465,20.535c-0.029,0.056-0.058,0.113-0.086,0.169
			c-23.219,45.58-28.791,97.693-20.913,147.876c3.57,22.735,10.378,45.901,20.895,66.435c0.036,0.071,0.072,0.142,0.107,0.212
			c3.768,7.334,7.928,14.207,12.46,20.523C273.583,337.835,198.836,320.569,111.744,315.334z M467.025,337.755
			c-17.759,28.385-40.972,44.019-65.361,44.019c-14.414,0-28.416-5.463-41.125-15.789c-0.175-0.173-0.357-0.339-0.549-0.497
			c-3.023-2.498-5.939-5.228-8.741-8.173c-0.012-0.012-0.023-0.024-0.035-0.037c-0.745-0.783-1.475-1.592-2.204-2.406
			c-4.477-5.046-8.73-10.759-12.708-17.118c-39.662-63.394-39.711-158.891,0-222.368c3.961-6.332,8.196-12.024,12.652-17.055
			c3.496-3.91,7.175-7.487,11.035-10.676c0.193-0.16,0.377-0.328,0.552-0.501c12.708-10.324,26.708-15.787,41.122-15.787
			c24.388,0,47.601,15.633,65.361,44.019c18.503,29.574,28.693,69.06,28.693,111.184
			C495.717,268.695,485.527,308.181,467.025,337.755z"/>
	</g>
</g>
<g>
	<g>
		<path d="M443.484,139.681c-11.942-22.385-27.576-35.746-41.819-35.746c-14.244,0-29.878,13.363-41.82,35.745
			c-6.719,12.593-11.821,27.188-15.151,42.915c-0.076,0.245-0.142,0.495-0.195,0.751c-5.872,28.331-5.861,58.116,0,86.453
			c0.053,0.256,0.12,0.506,0.197,0.752c3.329,15.726,8.43,30.321,15.15,42.914c11.942,22.382,27.576,35.745,41.82,35.745
			s29.877-13.363,41.819-35.746c12.683-23.77,19.668-54.628,19.668-86.892C463.151,194.31,456.166,163.452,443.484,139.681z
			 M359.216,260c-1.274-7.491-2.099-15.205-2.49-23.064c-0.046-0.94-0.09-1.879-0.124-2.832c-0.025-0.698-0.046-1.397-0.064-2.098
			c-0.044-1.773-0.077-3.556-0.078-5.373c0-0.021,0-0.04,0-0.061c0-0.021,0-0.04,0-0.061c0-1.817,0.034-3.601,0.078-5.372
			c0.018-0.701,0.039-1.4,0.064-2.099c0.033-0.952,0.078-1.89,0.124-2.829c0.391-7.859,1.216-15.575,2.49-23.066h21.151
			c-8.774,17.361-8.904,39.792-3.361,58.137c0.898,2.971,1.962,5.893,3.19,8.744C378.199,259.965,359.312,260.574,359.216,260z
			 M401.665,332.926c-9.506,0-28.963-19.583-38.963-56.644h38.961c0.001,0,0.001,0,0.001,0c16.13,0,28.293-21.372,28.293-49.712
			c0-28.34-12.163-49.712-28.293-49.712c-0.009,0-0.017,0.001-0.026,0.001h-38.937c10-37.061,29.457-56.644,38.963-56.644
			c13.119,0,45.205,37.269,45.205,106.354C446.868,295.657,414.784,332.926,401.665,332.926z M389.654,226.571
			c0-23.368,9.114-33.427,12.009-33.428c0.002,0,0.004,0,0.008,0c2.902,0.014,12.004,10.074,12.004,33.428
			c0,23.371-9.115,33.429-12.01,33.429C398.769,259.999,389.654,249.94,389.654,226.571z"/>
	</g>
</g>
</svg>