<?xml version="1.0" encoding="UTF-8"?>
<!DOCTYPE svg PUBLIC "-//W3C//DTD SVG 1.1//EN" "http://www.w3.org/Graphics/SVG/1.1/DTD/svg11.dtd">
<!-- Creator: CorelDRAW X8 -->
<svg xmlns="http://www.w3.org/2000/svg" xml:space="preserve" width="211.667mm" height="105.833mm" version="1.1" style="shape-rendering:geometricPrecision; text-rendering:geometricPrecision; image-rendering:optimizeQuality; fill-rule:evenodd; clip-rule:evenodd"
viewBox="0 0 21167 10583"
 xmlns:xlink="http://www.w3.org/1999/xlink">
 <defs>
  <style type="text/css">
   <![CDATA[
    .fil0 {fill:#EEDD13}
    .fil1 {fill:#535355;fill-rule:nonzero}
   ]]>
  </style>
 </defs>
 <g id="Capa_x0020_1">
  <metadata id="CorelCorpID_0Corel-Layer"/>
  <g id="_2337470137504">
   <path class="fil0" d="M18186 4316l0 -682c0,-93 46,-173 127,-220 81,-46 173,-46 254,0l590 341 590 341c81,47 127,127 127,220 0,93 -46,173 -127,220l-590 340 -590 341c-81,47 -173,47 -254,0 -81,-46 -127,-126 -127,-220l0 -681z"/>
   <path class="fil1" d="M2057 5105c327,0 513,-142 655,-335l-309 -220c-91,108 -180,180 -335,180 -208,0 -354,-174 -354,-396l0 -4c0,-217 146,-395 354,-395 144,0 239,70 324,174l310 -239c-130,-180 -329,-307 -630,-307 -449,0 -779,339 -779,771l0 4c0,443 341,767 764,767zm1406 -2c366,0 635,-271 635,-600l0 -4c0,-326 -265,-595 -631,-595 -367,0 -634,271 -634,599l0 5c0,328 265,595 630,595zm4 -341c-142,0 -244,-119 -244,-259l0 -4c0,-142 93,-256 240,-256 144,0 245,118 245,260l0 5c0,137 -95,254 -241,254zm833 313l402 0 0 -620c0,-128 70,-195 170,-195 99,0 163,67 163,195l0 620 400 0 0 -750c0,-262 -144,-421 -389,-421 -164,0 -270,91 -344,186l0 -161 -402 0 0 1146zm1930 28c252,0 401,-104 509,-263l-269 -195c-62,74 -121,119 -221,119 -135,0 -228,-115 -228,-261l0 -4c0,-142 95,-256 226,-256 96,0 157,46 214,120l271 -203c-99,-153 -252,-254 -489,-254 -362,0 -612,273 -612,597l0 5c0,324 252,595 599,595zm1221 0c229,0 386,-91 496,-233l-223 -184c-82,82 -154,116 -254,116 -127,0 -216,-61 -248,-189l767 0c2,-27 2,-57 2,-82 0,-337 -182,-627 -576,-627 -339,0 -578,267 -578,599l0 5c0,353 254,595 614,595zm-235 -695c23,-127 91,-208 199,-208 110,0 186,81 201,208l-400 0zm983 -583l418 0 0 -296 -418 0 0 296zm2 1596c259,0 407,-106 407,-396l0 -1096 -400 0 0 1079c0,99 -43,135 -121,135 -17,0 -36,-2 -53,-4l0 267c49,8 102,15 167,15zm994 -320c153,0 257,-60 339,-146l0 120 397 0 0 -659c0,-161 -36,-279 -123,-364 -91,-91 -231,-140 -437,-140 -197,0 -334,36 -464,89l83 282c104,-40 197,-64 318,-64 154,0 229,68 229,189l0 19c-66,-25 -168,-44 -276,-44 -269,0 -449,120 -449,360l0 4c0,227 165,354 383,354zm145 -252c-83,0 -142,-47 -142,-125l0 -5c0,-86 65,-142 184,-142 59,0 116,13 159,30l0 53c0,117 -83,189 -201,189zm839 226l400 0 0 -1546 -400 0 0 1546zm1229 28c229,0 386,-91 496,-233l-223 -184c-82,82 -154,116 -254,116 -127,0 -216,-61 -248,-189l767 0c2,-27 2,-57 2,-82 0,-337 -182,-627 -576,-627 -339,0 -578,267 -578,599l0 5c0,353 254,595 614,595zm-235 -695c23,-127 91,-208 199,-208 110,0 187,81 201,208l-400 0zm1437 693c279,0 468,-132 468,-384l0 -4c0,-222 -180,-303 -407,-364 -118,-36 -186,-58 -186,-102l0 -4c0,-34 32,-58 93,-58 91,0 220,41 339,109l138 -255c-134,-84 -303,-133 -473,-133 -262,0 -460,135 -460,379l0 4c0,229 181,308 407,365 121,34 187,51 187,99l0 5c0,40 -34,61 -104,61 -119,0 -259,-44 -392,-131l-150 241c158,117 345,172 540,172zm1324 -26l411 0 0 -423 206 0c366,0 636,-185 636,-536l0 -5c0,-328 -242,-519 -615,-519l-638 0 0 1483zm411 -745l0 -392 195 0c147,0 238,65 238,192l0 5c0,118 -91,195 -236,195l-197 0zm1024 745l403 0 0 -358c0,-265 116,-383 328,-383l34 0 0 -424c-193,-8 -297,95 -362,250l0 -231 -403 0 0 1146zm1503 28c366,0 635,-271 635,-600l0 -4c0,-326 -265,-595 -631,-595 -367,0 -634,271 -634,599l0 5c0,328 265,595 630,595zm4 -341c-142,0 -244,-119 -244,-259l0 -4c0,-142 93,-256 240,-256 144,0 245,118 245,260l0 5c0,137 -95,254 -241,254z"/>
  </g>
  <path class="fil1" d="M5658 6977l277 0 437 -1084 -326 0 -246 681 -245 -681 -332 0 435 1084zm811 -915l303 0 0 -215 -303 0 0 215zm6 908l291 0 0 -833 -291 0 0 833zm487 0l290 0 0 -1123 -290 0 0 1123zm486 0l291 0 0 -1123 -291 0 0 1123zm717 18c111,0 186,-43 246,-106l0 88 288 0 0 -479c0,-117 -26,-203 -89,-264 -67,-66 -168,-102 -317,-102 -143,0 -243,26 -337,65l60 204c75,-29 143,-46 231,-46 112,0 166,49 166,137l0 14c-48,-19 -122,-32 -200,-32 -196,0 -326,87 -326,261l0 3c0,165 120,257 278,257zm105 -183c-60,0 -103,-34 -103,-91l0 -3c0,-63 47,-103 133,-103 43,0 85,9 116,22l0 38c0,85 -60,137 -146,137zm1623 186c332,0 581,-251 581,-560l0 -3c0,-307 -246,-557 -578,-557 -332,0 -582,251 -582,560l0 3c0,308 246,557 579,557zm3 -269c-165,0 -277,-137 -277,-291l0 -3c0,-155 109,-287 274,-287 164,0 275,133 275,290l0 3c0,156 -109,288 -272,288zm1141 268c183,0 291,-76 370,-191l-196 -142c-44,54 -87,87 -160,87 -98,0 -166,-84 -166,-190l0 -3c0,-103 69,-186 165,-186 69,0 114,34 155,88l197 -148c-72,-111 -183,-184 -355,-184 -263,0 -445,198 -445,433l0 3c0,236 183,433 435,433zm734 -2c111,0 186,-43 246,-106l0 88 288 0 0 -479c0,-117 -26,-203 -89,-264 -66,-66 -168,-102 -317,-102 -143,0 -243,26 -337,65l60 204c76,-29 143,-46 231,-46 112,0 166,49 166,137l0 14c-48,-19 -122,-32 -200,-32 -195,0 -326,87 -326,261l0 3c0,165 120,257 278,257zm105 -183c-60,0 -103,-34 -103,-91l0 -3c0,-63 48,-103 134,-103 43,0 84,9 115,22l0 38c0,85 -60,137 -146,137zm602 165l292 0 0 -453c0,-92 49,-140 118,-140 70,0 116,48 116,140l0 453 290 0 0 -453c0,-92 51,-140 120,-140 70,0 114,48 114,140l0 453 293 0 0 -546c0,-196 -107,-305 -285,-305 -123,0 -206,51 -278,135 -45,-86 -130,-135 -240,-135 -117,0 -194,63 -248,132l0 -114 -292 0 0 833zm1517 246l292 0 0 -348c55,63 128,120 254,120 197,0 367,-165 367,-435l0 -3c0,-266 -172,-431 -369,-431 -124,0 -195,60 -252,129l0 -111 -292 0 0 1079zm456 -472c-95,0 -170,-79 -170,-190l0 -3c0,-111 75,-189 170,-189 93,0 171,78 171,189l0 3c0,113 -78,190 -171,190zm1031 246c266,0 462,-197 462,-436l0 -3c0,-237 -192,-432 -459,-432 -266,0 -460,197 -460,435l0 3c0,239 193,433 457,433zm3 -248c-103,0 -177,-86 -177,-188l0 -3c0,-103 68,-186 174,-186 105,0 179,86 179,189l0 3c0,100 -69,185 -176,185z"/>
 </g>
</svg>
