<?xml version="1.0" encoding="UTF-8"?>
<!DOCTYPE svg PUBLIC "-//W3C//DTD SVG 1.1//EN" "http://www.w3.org/Graphics/SVG/1.1/DTD/svg11.dtd">
<!-- Creator: CorelDRAW X8 -->
<svg xmlns="http://www.w3.org/2000/svg" xml:space="preserve" width="211.667mm" height="105.833mm" version="1.1" style="shape-rendering:geometricPrecision; text-rendering:geometricPrecision; image-rendering:optimizeQuality; fill-rule:evenodd; clip-rule:evenodd"
viewBox="0 0 21167 10583"
 xmlns:xlink="http://www.w3.org/1999/xlink">
 <defs>
  <style type="text/css">
   <![CDATA[
    .fil0 {fill:#EEDD13}
    .fil1 {fill:#535355;fill-rule:nonzero}
   ]]>
  </style>
 </defs>
 <g id="Capa_x0020_1">
  <metadata id="CorelCorpID_0Corel-Layer"/>
  <g id="_2337548491984">
   <path class="fil0" d="M18049 4315l0 -743c0,-102 51,-189 139,-240 88,-51 189,-51 277,0l644 372 644 371c88,51 138,139 138,240 0,102 -50,189 -138,240l-644 372 -644 372c-88,51 -189,51 -277,0 -88,-51 -139,-138 -139,-240l0 -744z"/>
   <path class="fil1" d="M1844 5172c185,0 335,-56 444,-164 109,-109 159,-252 159,-456l0 -1026 -446 0 0 1024c0,150 -71,226 -182,226 -102,0 -174,-55 -255,-150l-288 273c117,155 284,273 568,273zm1297 0c178,0 296,-97 375,-201l0 173 437 0 0 -1251 -437 0 0 678c0,138 -77,210 -185,210 -109,0 -178,-72 -178,-210l0 -678 -439 0 0 816c0,287 159,463 427,463zm1487 -19l400 0 499 -1260 -453 0 -243 731 -240 -731 -462 0 499 1260zm1621 21c249,0 420,-99 540,-254l-242 -201c-90,90 -169,127 -278,127 -138,0 -235,-67 -270,-206l837 0c2,-30 2,-62 2,-90 0,-368 -199,-684 -629,-684 -370,0 -631,291 -631,654l0 5c0,386 278,649 671,649zm-257 -758c25,-139 99,-227 217,-227 120,0 204,88 220,227l-437 0zm1071 728l439 0 0 -677c0,-139 76,-213 185,-213 108,0 178,74 178,213l0 677 437 0 0 -818c0,-287 -158,-460 -426,-460 -178,0 -293,99 -374,203l0 -176 -439 0 0 1251zm1997 25c123,0 224,-30 305,-74l0 -342c-53,26 -109,42 -166,42 -81,0 -120,-35 -120,-125l0 -425 291 0 0 -352 -291 0 0 -316 -437 0 0 316 -148 0 0 352 148 0 0 511c0,298 152,413 418,413zm953 3c178,0 296,-97 374,-201l0 173 437 0 0 -1251 -437 0 0 678c0,138 -76,210 -185,210 -108,0 -178,-72 -178,-210l0 -678 -439 0 0 816c0,287 160,463 428,463zm1590 0c188,0 294,-90 379,-194l0 166 440 0 0 -1687 -440 0 0 589c-80,-95 -194,-180 -381,-180 -296,0 -552,247 -552,654l0 5c0,399 258,647 554,647zm132 -368c-139,0 -256,-118 -256,-284l0 -5c0,-166 117,-284 256,-284 143,0 257,118 257,284l0 5c0,166 -114,284 -257,284zm1676 340l449 0 0 -462 224 0c400,0 693,-201 693,-585l0 -5c0,-358 -263,-566 -670,-566l-696 0 0 1618zm449 -814l0 -427 212 0c160,0 259,71 259,210l0 5c0,129 -99,212 -256,212l-215 0zm1116 814l440 0 0 -391c0,-289 127,-418 358,-418l37 0 0 -462c-210,-10 -324,104 -395,272l0 -252 -440 0 0 1251zm1640 30c400,0 693,-296 693,-654l0 -5c0,-356 -289,-649 -689,-649 -400,0 -691,296 -691,654l0 5c0,358 289,649 687,649zm4 -372c-155,0 -266,-130 -266,-282l0 -5c0,-155 102,-279 262,-279 157,0 268,129 268,284l0 5c0,150 -104,277 -264,277z"/>
  </g>
  <path class="fil1" d="M5537 6978l283 0 448 -1111 -334 0 -252 698 -251 -698 -340 0 446 1111zm831 -938l310 0 0 -220 -310 0 0 220zm6 930l298 0 0 -852 -298 0 0 852zm498 0l298 0 0 -1150 -298 0 0 1150zm499 0l297 0 0 -1150 -297 0 0 1150zm734 19c114,0 191,-44 252,-108l0 89 295 0 0 -490c0,-120 -27,-208 -91,-271 -68,-68 -172,-104 -325,-104 -146,0 -249,27 -345,66l61 210c78,-30 147,-47 237,-47 115,0 170,50 170,140l0 14c-49,-19 -124,-33 -205,-33 -200,0 -334,90 -334,268l0 3c0,169 123,263 285,263zm107 -187c-61,0 -105,-35 -105,-93l0 -3c0,-65 49,-106 137,-106 44,0 87,9 118,22l0 40c0,86 -61,140 -150,140zm1664 191c340,0 595,-257 595,-574l0 -3c0,-316 -252,-571 -592,-571 -341,0 -596,257 -596,574l0 3c0,315 252,571 593,571zm3 -276c-169,0 -284,-141 -284,-298l0 -3c0,-160 112,-295 281,-295 168,0 282,137 282,298l0 3c0,159 -112,295 -279,295zm1170 274c187,0 297,-77 378,-196l-200 -145c-46,56 -90,89 -164,89 -101,0 -170,-85 -170,-194l0 -3c0,-106 70,-191 168,-191 71,0 117,35 159,90l202 -151c-74,-114 -187,-190 -364,-190 -270,0 -455,204 -455,445l0 3c0,241 187,443 446,443zm752 -2c113,0 190,-44 252,-108l0 89 295 0 0 -490c0,-120 -27,-208 -92,-271 -68,-68 -172,-104 -325,-104 -146,0 -249,27 -345,66l62 210c77,-30 146,-47 236,-47 115,0 170,50 170,140l0 14c-48,-19 -124,-33 -204,-33 -201,0 -335,90 -335,268l0 3c0,169 123,263 286,263zm107 -187c-62,0 -106,-35 -106,-93l0 -3c0,-65 49,-106 137,-106 45,0 87,9 119,22l0 40c0,86 -62,140 -150,140zm616 168l300 0 0 -463c0,-95 50,-143 121,-143 71,0 118,48 118,143l0 463 298 0 0 -463c0,-95 52,-143 123,-143 71,0 117,48 117,143l0 463 299 0 0 -559c0,-200 -108,-312 -291,-312 -126,0 -211,52 -285,138 -46,-88 -133,-138 -246,-138 -120,0 -199,64 -254,135l0 -116 -300 0 0 852zm1555 253l299 0 0 -357c57,65 131,123 260,123 202,0 377,-168 377,-446l0 -3c0,-273 -176,-441 -378,-441 -128,0 -200,61 -259,132l0 -113 -299 0 0 1105zm468 -484c-98,0 -175,-81 -175,-194l0 -3c0,-114 77,-194 175,-194 95,0 175,80 175,194l0 3c0,115 -80,194 -175,194zm1056 252c273,0 473,-202 473,-446l0 -3c0,-243 -197,-443 -470,-443 -272,0 -471,202 -471,446l0 3c0,244 197,443 468,443zm3 -254c-105,0 -181,-88 -181,-192l0 -3c0,-106 69,-191 178,-191 107,0 183,88 183,194l0 3c0,102 -71,189 -180,189z"/>
 </g>
</svg>
