<?xml version="1.0" encoding="UTF-8"?>
<!DOCTYPE svg PUBLIC "-//W3C//DTD SVG 1.1//EN" "http://www.w3.org/Graphics/SVG/1.1/DTD/svg11.dtd">
<!-- Creator: CorelDRAW X8 -->
<svg xmlns="http://www.w3.org/2000/svg" xml:space="preserve" width="211.667mm" height="105.833mm" version="1.1" style="shape-rendering:geometricPrecision; text-rendering:geometricPrecision; image-rendering:optimizeQuality; fill-rule:evenodd; clip-rule:evenodd"
viewBox="0 0 21167 10583"
 xmlns:xlink="http://www.w3.org/1999/xlink">
 <defs>
  <style type="text/css">
   <![CDATA[
    .fil0 {fill:#EEDD13}
    .fil1 {fill:#535355;fill-rule:nonzero}
   ]]>
  </style>
 </defs>
 <g id="Capa_x0020_1">
  <metadata id="CorelCorpID_0Corel-Layer"/>
  <g id="_2337464611696">
   <path class="fil0" d="M14880 4204l0 -1315c0,-180 89,-335 245,-425 156,-90 334,-90 490,0l1139 658 1140 658c155,90 245,244 245,424 0,180 -90,334 -245,424l-1140 658 -1139 658c-156,90 -334,90 -490,0 -156,-90 -245,-245 -245,-425l0 -1315z"/>
   <path class="fil1" d="M4219 6003c387,0 702,-117 930,-344 227,-228 334,-528 334,-954l0 -2149 -935 0 0 2144c0,315 -150,475 -382,475 -213,0 -363,-117 -533,-315l-605 571c247,325 596,572 1191,572zm1894 -59l939 0 0 -968 470 0c837,0 1452,-421 1452,-1225l0 -9c0,-751 -552,-1186 -1404,-1186l-1457 0 0 3388zm939 -1704l0 -895 445 0c334,0 543,150 543,440l0 10c0,271 -209,445 -538,445l-450 0zm2339 1704l920 0 0 -818c0,-605 266,-876 750,-876l78 0 0 -968c-441,-20 -678,218 -828,571l0 -528 -920 0 0 2619zm3433 63c838,0 1453,-619 1453,-1370l0 -9c0,-746 -605,-1361 -1443,-1361 -838,0 -1448,620 -1448,1370l0 10c0,750 606,1360 1438,1360zm10 -779c-324,0 -557,-271 -557,-591l0 -9c0,-325 213,-586 547,-586 330,0 562,271 562,595l0 10c0,315 -218,581 -552,581z"/>
  </g>
  <path class="fil1" d="M4135 8108l361 0 568 -1411 -424 0 -321 886 -318 -886 -432 0 566 1411zm1055 -1191l395 0 0 -280 -395 0 0 280zm8 1181l379 0 0 -1083 -379 0 0 1083zm633 0l378 0 0 -1461 -378 0 0 1461zm633 0l378 0 0 -1461 -378 0 0 1461zm933 24c144,0 242,-56 320,-138l0 114 374 0 0 -623c0,-152 -34,-264 -116,-344 -86,-86 -218,-132 -412,-132 -186,0 -316,34 -438,84l78 266c98,-38 186,-60 300,-60 146,0 216,64 216,178l0 18c-62,-24 -158,-42 -260,-42 -254,0 -424,114 -424,341l0 4c0,214 156,334 362,334zm136 -238c-78,0 -134,-44 -134,-119l0 -4c0,-82 62,-134 174,-134 56,0 110,12 150,28l0 50c0,111 -78,179 -190,179zm2112 242c432,0 756,-326 756,-729l0 -4c0,-400 -320,-724 -752,-724 -433,0 -757,326 -757,728l0 4c0,401 320,725 753,725zm4 -351c-214,0 -361,-178 -361,-378l0 -4c0,-202 143,-374 357,-374 214,0 358,174 358,378l0 4c0,202 -142,374 -354,374zm1485 349c238,0 378,-98 480,-248l-254 -185c-58,70 -114,113 -208,113 -128,0 -216,-109 -216,-247l0 -4c0,-134 90,-242 214,-242 90,0 148,44 202,114l256 -192c-94,-144 -238,-240 -462,-240 -342,0 -578,258 -578,564l0 4c0,307 238,563 566,563zm955 -2c144,0 242,-56 320,-138l0 114 375 0 0 -623c0,-152 -34,-264 -117,-344 -86,-86 -218,-132 -412,-132 -186,0 -316,34 -438,84l78 266c98,-38 186,-60 300,-60 146,0 216,64 216,178l0 18c-62,-24 -158,-42 -260,-42 -254,0 -424,114 -424,341l0 4c0,214 156,334 362,334zm136 -238c-78,0 -134,-44 -134,-119l0 -4c0,-82 62,-134 174,-134 56,0 110,12 150,28l0 50c0,111 -78,179 -190,179zm783 214l380 0 0 -589c0,-120 64,-182 154,-182 90,0 150,62 150,182l0 589 379 0 0 -589c0,-120 66,-182 156,-182 90,0 148,62 148,182l0 589 380 0 0 -711c0,-254 -138,-396 -370,-396 -160,0 -268,66 -362,176 -58,-112 -168,-176 -312,-176 -153,0 -253,82 -323,172l0 -148 -380 0 0 1083zm1974 320l380 0 0 -452c72,82 166,156 330,156 256,0 479,-214 479,-567l0 -4c0,-346 -225,-560 -481,-560 -162,0 -254,78 -328,168l0 -144 -380 0 0 1403zm594 -614c-124,0 -222,-103 -222,-247l0 -4c0,-144 98,-246 222,-246 120,0 222,102 222,246l0 4c0,146 -102,247 -222,247zm1341 320c347,0 601,-256 601,-567l0 -4c0,-308 -250,-562 -597,-562 -346,0 -598,256 -598,566l0 4c0,311 250,563 594,563zm4 -322c-134,0 -230,-113 -230,-245l0 -4c0,-134 88,-242 226,-242 136,0 233,112 233,246l0 4c0,130 -91,241 -229,241z"/>
 </g>
</svg>
