<?xml version="1.0" encoding="UTF-8"?>
<svg id="Capa_2" data-name="Capa 2" xmlns="http://www.w3.org/2000/svg" xmlns:xlink="http://www.w3.org/1999/xlink" viewBox="0 0 717.22 65.86">
  <defs>
    <style>
      .cls-1 {
        letter-spacing: 0em;
      }

      .cls-2 {
        letter-spacing: -.06em;
      }

      .cls-3 {
        letter-spacing: 0em;
      }

      .cls-4 {
        letter-spacing: -.01em;
      }

      .cls-5 {
        letter-spacing: 0em;
      }

      .cls-6 {
        letter-spacing: 0em;
      }

      .cls-7 {
        fill: #474764;
      }

      .cls-8 {
        fill: url(#Degradado_sin_nombre_27);
      }

      .cls-9 {
        letter-spacing: -.03em;
      }

      .cls-10 {
        fill: #494963;
        font-family: Inter-Bold, Inter;
        font-size: 29.59px;
        font-weight: 700;
      }
    </style>
    <linearGradient id="Degradado_sin_nombre_27" data-name="Degradado sin nombre 27" x1="-3.14" y1="29.91" x2="79.03" y2="29.91" gradientUnits="userSpaceOnUse">
      <stop offset="0" stop-color="#ffcb02"/>
      <stop offset=".27" stop-color="#ff7402"/>
      <stop offset=".5" stop-color="#ff6d7e"/>
      <stop offset=".71" stop-color="#e42153"/>
      <stop offset="1" stop-color="#3c3ae5"/>
    </linearGradient>
  </defs>
  <g id="Capa_1-2" data-name="Capa 1">
    <g>
      <path class="cls-7" d="M187.06,2.94h-9.89v5.85h-3.51v7.17h3.51v12.04c0,5.25,2.98,7.4,10.49,7.4,1.25,0,2.19.04,3.36-.04v-7.06h-.98c-2,0-2.98-.87-2.98-2.53v-9.81h4.68v-7.17h-4.68V2.94ZM275.85,24.19v-2.68c0-8.15-5.32-13.4-13.55-13.4-5.89,0-10.23,2.68-12.26,7.32h-11.55v-6.68h14.23V.6h-24.45v34.79h10.23v-12.3h10.23c.3,8.15,5.43,12.98,13.89,12.98,7.32,0,12.3-3.55,13.13-9.28h-8.79c-.57,1.58-2.19,2.53-4.19,2.53-2.68,0-4.53-1.89-4.53-4.49v-.64h17.62ZM262.49,14.91c2.34,0,4,1.55,4.15,3.92h-8.3c.23-2.26,1.92-3.92,4.15-3.92h0ZM131.85,8.11c-7.77,0-12.6,3.58-12.83,9.28h8.83c.15-1.36,1.43-2.45,3.47-2.45,1.85,0,3.21.94,3.21,2.75v1.28l-5.85.38c-7.09.42-11.02,3.21-11.02,8.3,0,4.79,4.11,8.15,8.94,8.15,3.09,0,6.34-1.36,7.74-3.96h.19v3.55h9.66v-18.19c0-5.4-4.94-9.09-12.34-9.09h0ZM134.53,26c0,1.96-2.04,3.21-4.23,3.21-1.74,0-2.91-.87-2.91-2.3,0-1.32,1.06-2.19,2.94-2.34,0,0,2.49-.08,3.7-.34.3-.08.49-.23.49-.23v2ZM206.23,8.11c-7.77,0-12.57,3.58-12.83,9.28h8.83c.15-1.36,1.43-2.45,3.47-2.45,1.85,0,3.21.94,3.21,2.75v1.28l-5.85.38c-7.09.42-11.02,3.21-11.02,8.3,0,4.79,4.11,8.15,8.98,8.15,3.06,0,6.3-1.36,7.7-3.96h.19v3.55h9.66v-18.19c0-5.4-4.94-9.09-12.34-9.09h0ZM208.91,26c0,1.96-2.04,3.21-4.23,3.21-1.74,0-2.91-.87-2.91-2.3,0-1.32,1.06-2.19,2.94-2.34,0,0,2.49-.08,3.74-.34.26-.08.45-.23.45-.23v2ZM163.92,8.26c-4.08,0-6.83,2.04-8.19,5.77h-.19v-5.25h-9.62v26.6h9.89v-14.87c0-2.49,1.4-4.3,3.74-4.3,2.49,0,3.74,1.66,3.74,4.34v14.83h9.89v-17.02c0-6.42-3.28-10.11-9.25-10.11h0ZM107.4,14.34l-4.75-.83c-3.32-.57-4.75-1.43-4.75-3.09s1.7-2.87,4.38-2.87,4.91,1.28,4.98,3.47h9.32c-.04-6.75-5.25-11.02-14.49-11.02-8.3,0-14.34,4.45-14.34,11.51,0,5.43,3.47,9.09,9.89,10.19l4.6.83c3.74.68,5.02,1.4,5.02,2.98,0,1.7-1.89,2.94-4.94,2.94-2.75,0-5.17-1.32-5.47-3.28h-9.66c.04,6.94,5.58,10.83,14.94,10.83s15.21-4.53,15.21-11.62c0-5.66-3.17-8.87-9.92-10.04h0Z"/>
      <path class="cls-7" d="M271.09,59.59h2.34l-4.26-11.81h-2.72l-4.26,11.81h2.38l.98-2.91h4.57l.98,2.91ZM266.15,54.94l1.62-4.75h.11l1.62,4.75h-3.36ZM258.26,59.59h2.19v-11.81h-2.19v11.81ZM249.25,50c.49-.3,1.09-.49,1.74-.49.38,0,.72.08,1.02.15.34.11.64.26.87.45.26.19.49.42.64.68.15.3.3.6.34.94h2.23c-.11-.64-.3-1.25-.57-1.74-.3-.53-.68-.94-1.13-1.32-.45-.34-.98-.6-1.55-.79-.6-.19-1.21-.3-1.89-.3-1.06,0-2,.26-2.83.72-.83.49-1.51,1.21-2,2.11-.45.91-.72,2-.72,3.25s.23,2.38.72,3.28,1.13,1.62,2,2.08c.83.49,1.77.75,2.83.75.72,0,1.4-.11,1.96-.34.6-.19,1.13-.49,1.55-.87.45-.38.79-.79,1.09-1.32.26-.49.45-1.02.53-1.58h-2.23c-.04.34-.19.68-.34.94-.19.26-.42.49-.64.68-.26.19-.57.3-.87.42-.34.08-.68.15-1.02.15-.68,0-1.25-.19-1.74-.49-.53-.3-.91-.79-1.21-1.4-.3-.6-.42-1.4-.42-2.3s.11-1.62.42-2.26c.3-.6.68-1.06,1.21-1.4h0ZM240.98,55.81h-.11l-5.7-8.04h-1.96v11.81h2.19v-8.04h.11l5.7,8.04h1.96v-11.81h-2.19v8.04ZM228.49,59.59h2.19v-11.81h-2.19v11.81ZM221.17,57.09h-.15l-3.13-9.32h-2.42l4.26,11.81h2.72l4.26-11.81h-2.42l-3.13,9.32ZM211.28,48.3c-.83-.45-1.77-.72-2.83-.72s-2,.26-2.83.72c-.87.49-1.51,1.21-2,2.11s-.72,2-.72,3.25.23,2.38.72,3.28,1.13,1.62,2,2.08c.83.49,1.77.75,2.83.75s2-.26,2.83-.75c.87-.45,1.51-1.17,2-2.08.49-.91.72-2,.72-3.28s-.23-2.34-.72-3.25c-.49-.91-1.13-1.62-2-2.11h0ZM211.4,55.96c-.3.6-.68,1.09-1.21,1.4-.49.3-1.09.49-1.74.49s-1.25-.19-1.74-.49c-.53-.3-.91-.79-1.21-1.4-.26-.64-.42-1.4-.42-2.3s.15-1.62.42-2.26c.3-.6.68-1.09,1.21-1.4.49-.3,1.09-.49,1.74-.49s1.25.19,1.74.49c.53.3.91.79,1.21,1.4.26.64.42,1.4.42,2.26s-.15,1.66-.42,2.3h0ZM199.06,54.79c.64-.3,1.13-.72,1.47-1.28.3-.53.49-1.21.49-1.96s-.19-1.43-.49-2c-.34-.57-.83-.98-1.43-1.32-.64-.3-1.43-.45-2.34-.45h-4.57v11.81h2.19v-4.34h2.26l2.38,4.34h2.42l-2.6-4.68c.08-.04.15-.08.23-.11h0ZM194.38,49.55h2.04c.53,0,.98.08,1.32.23.34.15.6.38.79.68.15.3.26.68.26,1.09s-.11.75-.26,1.06c-.19.3-.42.49-.79.64-.34.15-.79.23-1.32.23h-2.04v-3.92ZM188.23,48.26c-.64-.34-1.43-.49-2.38-.49h-4.53v11.81h2.19v-4h2.34c.91,0,1.7-.15,2.34-.49s1.13-.79,1.47-1.4c.3-.6.49-1.25.49-2.04,0-.72-.19-1.4-.49-2-.34-.6-.83-1.06-1.43-1.4h0ZM187.66,52.79c-.19.34-.45.57-.79.75-.34.19-.79.3-1.32.3h-2.04v-4.3h2c.57,0,1.02.08,1.36.26.34.19.6.45.79.75.15.3.23.68.23,1.09,0,.45-.08.79-.23,1.13h0Z"/>
      <rect class="cls-7" x="303.71" y=".14" width="2.5" height="59.62"/>
      <text class="cls-10" transform="translate(333.97 26.94)"><tspan x="0" y="0">Minis</tspan><tspan class="cls-3" x="78.59" y="0">t</tspan><tspan x="89.14" y="0">e</tspan><tspan class="cls-1" x="106.76" y="0">r</tspan><tspan x="119.03" y="0">io de </tspan><tspan class="cls-2" x="195.48" y="0">T</tspan><tspan class="cls-4" x="213.55" y="0">r</tspan><tspan x="225.2" y="0">a</tspan><tspan class="cls-5" x="242.37" y="0">b</tspan><tspan x="261.31" y="0">ajo</tspan><tspan class="cls-9" x="304.65" y="0">,</tspan><tspan x="0" y="29.02">Empleo y Segu</tspan><tspan class="cls-6" x="213.35" y="29.02">r</tspan><tspan x="225.61" y="29.02">idad Social</tspan></text>
      <path class="cls-8" d="M74.74,29.78h-30.01c-.54,0-.98-.45-.98-1v-9.06c0-.54.44-.98.98-.98h30.01c.54,0,.98.44.98.98v9.06c0,.54-.44,1-.98,1h0ZM58.41,48.16h-13.69c-.54,0-.98-.44-.98-.98v-9.06c0-.54.44-1,.98-1h13.69c.54,0,.98.45.98,1v9.06c0,.54-.44.98-.98.98h0ZM38.65,18.74h-.56c-2.66,0-5.31.32-7.92,1.07-3.35.96-6.57,2.5-9.66,4.68-1.41.98-2.85,1.89-4.31,2.71-3.29,1.84-6.73,2.7-10.23,2.91-1.45.08-3.46,0-5.1-.23-.46-.06-.88.31-.88.78v9.38c0,.39.31.73.71.78,1.49.14,3.43.3,4.75.25,2.05-.07,4.1-.38,6.14-.8,3.49-.71,6.82-2.33,10.05-4.42,1.97-1.29,3.93-2.63,5.95-3.67,3.6-1.84,7.34-2.56,11.15-2.43h.01c.52.02.95-.38.95-.9v-9.02c0-.58-.47-1.07-1.07-1.07h0ZM38.65,37.13h-.56c-2.66,0-5.31.32-7.92,1.07-3.35.96-6.57,2.5-9.66,4.68-1.41.98-2.85,1.89-4.31,2.71-3.29,1.85-6.73,2.71-10.23,2.91-1.45.09-3.46,0-5.1-.22-.46-.07-.88.3-.88.76v9.38c0,.41.31.74.71.78,1.49.14,3.43.3,4.75.25,2.05-.07,4.1-.38,6.14-.79,3.49-.72,6.82-2.34,10.05-4.44,1.97-1.27,3.93-2.63,5.95-3.67,3.6-1.84,7.34-2.56,11.15-2.42h.01c.52.01.95-.39.95-.92v-9.01c0-.59-.47-1.08-1.07-1.08h0ZM74.74,11.39h-30.01c-.54,0-.98-.44-.98-.98V1.34c0-.54.44-.98.98-.98h30.01c.54,0,.98.44.98.98v9.06c0,.54-.44.98-.98.98h0ZM38.65.36h-.56c-2.66,0-5.31.32-7.92,1.07-3.35.96-6.57,2.5-9.66,4.68-1.41.98-2.85,1.89-4.31,2.71-3.29,1.84-6.73,2.7-10.23,2.91-1.45.08-3.46,0-5.1-.23-.46-.06-.88.3-.88.78v9.38c0,.39.31.73.71.78,1.49.14,3.43.3,4.75.25,2.05-.08,4.1-.38,6.14-.8,3.49-.71,6.82-2.33,10.05-4.42,1.97-1.29,3.93-2.64,5.95-3.67,3.6-1.84,7.34-2.56,11.15-2.43h.01c.52.02.95-.39.95-.9V1.43c0-.59-.47-1.07-1.07-1.07h0Z"/>
    </g>
  </g>
</svg>