<?xml version="1.0" encoding="UTF-8"?>
<svg id="Capa_2" data-name="Capa 2" xmlns="http://www.w3.org/2000/svg" xmlns:xlink="http://www.w3.org/1999/xlink" viewBox="0 0 350.61 230.28">
  <defs>
    <style>
      .cls-1 {
        font-family: Inter-Bold, Inter;
        font-size: 27.07px;
        font-weight: 700;
      }

      .cls-1, .cls-2 {
        fill: #494963;
      }

      .cls-3 {
        letter-spacing: 0em;
      }

      .cls-4 {
        letter-spacing: 0em;
      }

      .cls-5 {
        letter-spacing: 0em;
      }

      .cls-6 {
        letter-spacing: -.03em;
      }

      .cls-7 {
        letter-spacing: -.06em;
      }

      .cls-8 {
        letter-spacing: -.01em;
      }

      .cls-9 {
        fill: url(#Degradado_sin_nombre_27);
      }

      .cls-10 {
        letter-spacing: 0em;
      }
    </style>
    <linearGradient id="Degradado_sin_nombre_27" data-name="Degradado sin nombre 27" x1="144.01" y1="22.68" x2="207.08" y2="22.68" gradientUnits="userSpaceOnUse">
      <stop offset="0" stop-color="#ffcb02"/>
      <stop offset=".27" stop-color="#ff7402"/>
      <stop offset=".5" stop-color="#ff6d7e"/>
      <stop offset=".71" stop-color="#e42153"/>
      <stop offset="1" stop-color="#3c3ae5"/>
    </linearGradient>
  </defs>
  <g id="Capa_1-2" data-name="Capa 1">
    <g>
      <g>
        <path class="cls-2" d="M97.57,80.96c.27,1.8,2.47,3,4.98,3,2.8,0,4.52-1.12,4.52-2.67s-1.16-2.12-4.58-2.73l-4.21-.76c-5.83-1.01-9.01-4.36-9.01-9.34,0-6.43,5.5-10.48,13.09-10.48,8.46,0,13.2,3.88,13.25,10.05h-8.53c-.06-1.98-2.03-3.16-4.53-3.16s-3.99,1.01-3.99,2.6,1.3,2.31,4.32,2.84l4.37.75c6.17,1.08,9.05,4.01,9.05,9.17,0,6.5-5.44,10.64-13.9,10.64s-13.61-3.56-13.64-9.91h8.84ZM132.01,81.74v-1.59l-3.83.27c-1.72.13-2.68.95-2.68,2.13,0,1.32,1.08,2.1,2.67,2.1,2,0,3.85-1.13,3.85-2.91h0ZM116.59,83.26c0-4.68,3.59-7.21,10.09-7.61l5.33-.33v-1.19c0-1.63-1.23-2.51-2.92-2.51-1.86,0-3.04,1.01-3.17,2.25h-8.06c.21-5.2,4.62-8.49,11.72-8.49s11.26,3.38,11.26,8.31v16.63h-8.82v-3.26h-.18c-1.27,2.38-4.22,3.62-7.05,3.62-4.43,0-8.2-3.04-8.2-7.42h0ZM142.41,66h8.82v4.78h.18c1.23-3.41,3.76-5.27,7.47-5.27,5.47,0,8.46,3.4,8.46,9.24v15.58h-9.04v-13.58c0-2.44-1.14-3.94-3.41-3.94-2.13,0-3.43,1.65-3.43,3.92v13.59h-9.04v-24.32ZM180.04,60.67v5.33h4.27v6.54h-4.27v8.99c0,1.52.88,2.32,2.73,2.32.68,0,1.01-.03,1.54-.12v6.26c-.85.18-2,.33-3.72.33-6.87,0-9.58-1.98-9.58-6.78v-11h-3.22v-6.54h3.22v-5.33h9.04ZM199.99,81.74v-1.59l-3.83.27c-1.72.13-2.68.95-2.68,2.13,0,1.32,1.08,2.1,2.67,2.1,2,0,3.85-1.13,3.85-2.91h0ZM184.57,83.26c0-4.68,3.59-7.21,10.09-7.61l5.33-.33v-1.19c0-1.63-1.23-2.51-2.92-2.51-1.86,0-3.04,1.01-3.17,2.25h-8.06c.21-5.2,4.62-8.49,11.72-8.49s11.26,3.38,11.26,8.31v16.63h-8.82v-3.26h-.18c-1.27,2.38-4.22,3.62-7.05,3.62-4.43,0-8.2-3.04-8.2-7.42h0ZM217.7,90.32v-31.79h22.34v7.42h-13v6.11h11.76v7.01h-11.76v11.25h-9.34ZM245.19,75.18h7.57c-.15-2.18-1.67-3.59-3.79-3.59s-3.62,1.5-3.79,3.59h0ZM261.08,82.44c-.76,5.25-5.33,8.51-12.01,8.51-7.97,0-12.71-4.74-12.71-12.65s4.78-12.92,12.43-12.92,12.4,4.81,12.4,12.25v2.45h-16.13v.57c0,2.38,1.72,4.1,4.14,4.1,1.82,0,3.3-.85,3.83-2.31h8.05Z"/>
        <path class="cls-2" d="M135.69,109.47h1.79c1.41,0,2.24-.76,2.24-2.1s-.82-2.08-2.23-2.08h-1.8v4.18ZM138.01,103.69c2.19,0,3.71,1.48,3.71,3.69s-1.56,3.69-3.8,3.69h-2.23v3.64h-1.96v-11.02h4.29ZM145.44,109.05h2.22c1.25,0,1.98-.69,1.98-1.88s-.77-1.88-2.02-1.88h-2.19v3.77ZM145.44,114.71h-1.96v-11.02h4.37c2.38,0,3.81,1.32,3.81,3.43,0,1.46-.76,2.67-2.08,3.15l2.41,4.45h-2.25l-2.17-4.15h-2.13v4.15ZM155.2,109.2c0,2.45,1.24,4.01,3.21,4.01s3.22-1.56,3.22-4.01-1.25-4.02-3.22-4.02-3.21,1.56-3.21,4.02h0ZM163.63,109.2c0,3.5-2.02,5.69-5.23,5.69s-5.23-2.19-5.23-5.69,2.02-5.7,5.23-5.7,5.23,2.2,5.23,5.7h0ZM168.19,114.71l-3.83-11.02h2.17l2.79,8.9h.05l2.79-8.9h2.12l-3.84,11.02h-2.26ZM175.78,114.71h1.96v-11.02h-1.96v11.02ZM180,114.71v-11.02h1.71l5.47,7.72h.07v-7.72h1.89v11.02h-1.7l-5.48-7.73h-.06v7.73h-1.9ZM191.02,109.19c0-3.51,1.99-5.69,5.12-5.69,2.56,0,4.51,1.6,4.76,3.96h-1.95c-.26-1.38-1.38-2.29-2.81-2.29-1.89,0-3.11,1.56-3.11,4.02s1.21,4.03,3.12,4.03c1.46,0,2.51-.78,2.81-2.12h1.94c-.35,2.36-2.15,3.79-4.76,3.79-3.15,0-5.12-2.16-5.12-5.7h0ZM202.7,114.71h1.96v-11.02h-1.96v11.02ZM209.58,110.34h3.14l-1.54-4.7h-.05l-1.55,4.7ZM213.18,111.86h-4.05l-.94,2.85h-2.03l3.91-11.02h2.22l3.9,11.02h-2.07l-.94-2.85Z"/>
        <path class="cls-9" d="M203.78,22.58h-23.03c-.42,0-.76-.35-.76-.76v-6.95c0-.42.34-.76.76-.76h23.03c.42,0,.76.34.76.76v6.95c0,.42-.34.76-.76.76h0ZM191.26,36.69h-10.51c-.42,0-.76-.34-.76-.76v-6.95c0-.42.34-.76.76-.76h10.51c.42,0,.76.35.76.76v6.95c0,.42-.34.76-.76.76h0ZM176.09,14.11h-.43c-2.04,0-4.07.25-6.08.82-2.57.74-5.04,1.92-7.41,3.59-1.08.76-2.19,1.45-3.31,2.08-2.52,1.41-5.17,2.07-7.85,2.23-1.11.06-2.66,0-3.91-.18-.36-.04-.68.24-.68.6v7.2c0,.3.24.56.54.6,1.15.11,2.63.23,3.64.2,1.57-.05,3.15-.29,4.71-.61,2.68-.54,5.24-1.79,7.72-3.4,1.51-.99,3.01-2.02,4.57-2.82,2.76-1.41,5.64-1.96,8.56-1.87h0c.4.02.73-.29.73-.69v-6.93c0-.44-.36-.82-.82-.82h0ZM176.09,28.22h-.43c-2.04,0-4.07.25-6.08.82-2.57.74-5.04,1.92-7.41,3.59-1.08.76-2.19,1.45-3.31,2.08-2.52,1.42-5.17,2.08-7.85,2.23-1.11.07-2.66,0-3.91-.17-.36-.05-.68.23-.68.59v7.2c0,.31.24.57.54.6,1.15.11,2.63.23,3.64.2,1.57-.05,3.15-.29,4.71-.6,2.68-.55,5.24-1.8,7.72-3.4,1.51-.98,3.01-2.02,4.57-2.82,2.76-1.41,5.64-1.96,8.56-1.86h0c.4,0,.73-.3.73-.7v-6.92c0-.45-.36-.83-.82-.83h0ZM203.78,8.46h-23.03c-.42,0-.76-.34-.76-.76V.76c0-.42.34-.76.76-.76h23.03c.42,0,.76.34.76.76v6.95c0,.42-.34.76-.76.76h0ZM176.09,0h-.43c-2.04,0-4.07.25-6.08.82-2.57.74-5.04,1.92-7.41,3.59-1.08.76-2.19,1.45-3.31,2.08-2.52,1.41-5.17,2.07-7.85,2.23-1.11.06-2.66,0-3.91-.18-.36-.04-.68.23-.68.6v7.2c0,.3.24.56.54.6,1.15.11,2.63.23,3.64.2,1.57-.06,3.15-.29,4.71-.61,2.68-.54,5.24-1.79,7.72-3.4,1.51-.99,3.01-2.03,4.57-2.82,2.76-1.41,5.64-1.96,8.56-1.87h0c.4.02.73-.3.73-.69V.82c0-.45-.36-.82-.82-.82h0Z"/>
      </g>
      <text class="cls-1" transform="translate(31.43 194.67)"><tspan x="0" y="0">Minis</tspan><tspan class="cls-10" x="71.9" y="0">t</tspan><tspan x="81.54" y="0">e</tspan><tspan class="cls-3" x="97.67" y="0">r</tspan><tspan x="108.89" y="0">io de </tspan><tspan class="cls-7" x="178.83" y="0">T</tspan><tspan class="cls-8" x="195.36" y="0">r</tspan><tspan x="206.01" y="0">a</tspan><tspan class="cls-4" x="221.73" y="0">b</tspan><tspan x="239.05" y="0">ajo</tspan><tspan class="cls-6" x="278.7" y="0">,</tspan><tspan x="-31.43" y="26.55">Empleo y Segu</tspan><tspan class="cls-5" x="163.74" y="26.55">r</tspan><tspan x="174.96" y="26.55">idad Social</tspan></text>
      <rect class="cls-2" x="134.72" y="141.95" width="81.27" height="2.26"/>
    </g>
  </g>
</svg>