<?xml version="1.0" encoding="UTF-8"?>
<svg id="Capa_2" data-name="Capa 2" xmlns="http://www.w3.org/2000/svg" xmlns:xlink="http://www.w3.org/1999/xlink" viewBox="0 0 576.81 107.11">
  <defs>
    <style>
      .cls-1 {
        letter-spacing: 0em;
      }

      .cls-2 {
        letter-spacing: 0em;
      }

      .cls-3 {
        letter-spacing: 0em;
      }

      .cls-4 {
        letter-spacing: -.01em;
      }

      .cls-5 {
        font-family: Inter-Regular, Inter;
      }

      .cls-5, .cls-6, .cls-7 {
        fill: #494963;
      }

      .cls-5, .cls-7 {
        font-size: 19.29px;
      }

      .cls-8 {
        letter-spacing: 0em;
      }

      .cls-9 {
        letter-spacing: 0em;
      }

      .cls-10 {
        letter-spacing: 0em;
      }

      .cls-11 {
        letter-spacing: 0em;
      }

      .cls-12 {
        letter-spacing: 0em;
      }

      .cls-13 {
        letter-spacing: -.07em;
      }

      .cls-14 {
        letter-spacing: 0em;
      }

      .cls-15 {
        letter-spacing: .01em;
      }

      .cls-16 {
        letter-spacing: 0em;
      }

      .cls-17 {
        letter-spacing: 0em;
      }

      .cls-18 {
        letter-spacing: 0em;
      }

      .cls-19 {
        letter-spacing: -.03em;
      }

      .cls-20 {
        letter-spacing: 0em;
      }

      .cls-21 {
        letter-spacing: 0em;
      }

      .cls-22 {
        letter-spacing: -.01em;
      }

      .cls-23 {
        letter-spacing: 0em;
      }

      .cls-24 {
        letter-spacing: -.01em;
      }

      .cls-25 {
        letter-spacing: 0em;
      }

      .cls-26 {
        letter-spacing: 0em;
      }

      .cls-27 {
        fill: url(#Degradado_sin_nombre_27);
      }

      .cls-28 {
        letter-spacing: -.01em;
      }

      .cls-29 {
        letter-spacing: 0em;
      }

      .cls-7 {
        font-family: Inter-Bold, Inter;
        font-weight: 700;
      }

      .cls-30 {
        letter-spacing: -.01em;
      }

      .cls-31 {
        letter-spacing: -.02em;
      }

      .cls-32 {
        letter-spacing: 0em;
      }
    </style>
    <linearGradient id="Degradado_sin_nombre_27" data-name="Degradado sin nombre 27" x1="-3.15" y1="53.02" x2="79.33" y2="53.02" gradientUnits="userSpaceOnUse">
      <stop offset="0" stop-color="#ffcb02"/>
      <stop offset=".27" stop-color="#ff7402"/>
      <stop offset=".5" stop-color="#ff6d7e"/>
      <stop offset=".71" stop-color="#e42153"/>
      <stop offset="1" stop-color="#3c3ae5"/>
    </linearGradient>
  </defs>
  <g id="Capa_1-2" data-name="Capa 1">
    <g>
      <g>
        <text class="cls-7" transform="translate(328.07 23.37)"><tspan class="cls-29" x="0" y="0">M</tspan><tspan class="cls-18" x="17.9" y="0">i</tspan><tspan class="cls-29" x="23.14" y="0">n</tspan><tspan class="cls-18" x="35.08" y="0">i</tspan><tspan class="cls-30" x="40.33" y="0">s</tspan><tspan class="cls-31" x="50.86" y="0">t</tspan><tspan class="cls-22" x="57.54" y="0">e</tspan><tspan class="cls-3" x="68.78" y="0">r</tspan><tspan class="cls-18" x="76.83" y="0">i</tspan><tspan class="cls-22" x="82.08" y="0">o</tspan><tspan x="93.66" y="0"> </tspan><tspan class="cls-28" x="98.23" y="0">d</tspan><tspan class="cls-4" x="110.16" y="0">e</tspan><tspan class="cls-17" x="121.4" y="0"> </tspan><tspan class="cls-13" x="125.97" y="0">T</tspan><tspan class="cls-19" x="137.56" y="0">r</tspan><tspan class="cls-18" x="144.93" y="0">a</tspan><tspan class="cls-9" x="156.15" y="0">b</tspan><tspan class="cls-18" x="168.41" y="0">aj</tspan><tspan class="cls-22" x="184.88" y="0">o</tspan><tspan x="196.46" y="0">,</tspan></text>
        <text class="cls-7" transform="translate(328.07 46.52)"><tspan class="cls-14" x="0" y="0">E</tspan><tspan class="cls-12" x="11.58" y="0">m</tspan><tspan class="cls-28" x="29.13" y="0">p</tspan><tspan class="cls-18" x="41.06" y="0">l</tspan><tspan class="cls-22" x="46.31" y="0">eo</tspan><tspan x="69.13" y="0"> </tspan><tspan class="cls-8" x="73.7" y="0">y</tspan><tspan x="85.28" y="0" xml:space="preserve"> S</tspan><tspan class="cls-22" x="102.48" y="0">eg</tspan><tspan class="cls-29" x="125.66" y="0">u</tspan><tspan class="cls-15" x="137.6" y="0">r</tspan><tspan class="cls-18" x="145.65" y="0">i</tspan><tspan class="cls-28" x="150.9" y="0">d</tspan><tspan class="cls-18" x="162.83" y="0">a</tspan><tspan class="cls-28" x="174.05" y="0">d</tspan><tspan x="185.98" y="0" xml:space="preserve"> S</tspan><tspan class="cls-4" x="203.18" y="0">o</tspan><tspan class="cls-1" x="214.76" y="0">c</tspan><tspan class="cls-18" x="225.99" y="0">ia</tspan><tspan x="242.46" y="0">l</tspan></text>
      </g>
      <g>
        <text class="cls-5" transform="translate(328.43 77.75)"><tspan class="cls-10" x="0" y="0">S</tspan><tspan class="cls-11" x="12.28" y="0">e</tspan><tspan class="cls-23" x="23.51" y="0">c</tspan><tspan class="cls-24" x="34.4" y="0">r</tspan><tspan class="cls-11" x="41.43" y="0">e</tspan><tspan x="52.66" y="0">t</tspan><tspan class="cls-16" x="58.97" y="0">a</tspan><tspan class="cls-9" x="69.84" y="0">r</tspan><tspan class="cls-10" x="77.2" y="0">í</tspan><tspan class="cls-16" x="81.78" y="0">a</tspan><tspan class="cls-32" x="92.65" y="0"> </tspan><tspan class="cls-28" x="97.92" y="0">d</tspan><tspan class="cls-11" x="109.5" y="0">e</tspan><tspan class="cls-32" x="120.73" y="0"> </tspan><tspan class="cls-20" x="126" y="0">E</tspan><tspan class="cls-25" x="137.58" y="0">m</tspan><tspan class="cls-24" x="154.42" y="0">p</tspan><tspan class="cls-10" x="166.01" y="0">l</tspan><tspan class="cls-11" x="170.58" y="0">e</tspan><tspan x="181.81" y="0">o</tspan><tspan class="cls-32" x="193.38" y="0"> </tspan><tspan x="198.65" y="0">y</tspan></text>
        <text class="cls-5" transform="translate(328.43 100.89)"><tspan class="cls-28" x="0" y="0">D</tspan><tspan class="cls-21" x="13.69" y="0">e</tspan><tspan x="24.92" y="0">s</tspan><tspan class="cls-16" x="35.1" y="0">a</tspan><tspan class="cls-9" x="45.98" y="0">r</tspan><tspan class="cls-28" x="53.34" y="0">r</tspan><tspan x="60.37" y="0">o</tspan><tspan class="cls-26" x="71.94" y="0">ll</tspan><tspan x="81.09" y="0">o</tspan><tspan class="cls-32" x="92.66" y="0"> </tspan><tspan class="cls-11" x="97.93" y="0">E</tspan><tspan class="cls-25" x="109.51" y="0">m</tspan><tspan class="cls-28" x="126.35" y="0">pr</tspan><tspan class="cls-21" x="144.96" y="0">e</tspan><tspan class="cls-2" x="156.19" y="0">n</tspan><tspan class="cls-28" x="167.42" y="0">d</tspan><tspan class="cls-20" x="179" y="0">e</tspan><tspan class="cls-24" x="190.23" y="0">d</tspan><tspan x="201.81" y="0">or</tspan></text>
      </g>
      <g>
        <path class="cls-6" d="M188.58,25.71h-9.97v5.89h-3.55v7.23h3.55v12.13c0,5.31,2.99,7.51,10.57,7.51,1.25,0,2.21.03,3.39-.08v-7.09h-.98c-2.04,0-3.02-.87-3.02-2.55v-9.92h4.72v-7.23h-4.72v-5.89ZM278.15,47.14v-2.69c0-8.22-5.37-13.52-13.69-13.52-5.93,0-10.31,2.71-12.38,7.37h-11.62v-6.74h14.34v-8.19h-24.65v35.1h10.31v-12.43h10.29c.33,8.21,5.5,13.1,14.02,13.1,7.37,0,12.43-3.6,13.25-9.39h-8.88c-.58,1.6-2.21,2.55-4.24,2.55-2.66,0-4.56-1.88-4.56-4.52v-.64h17.8ZM264.68,37.78c2.34,0,4,1.56,4.17,3.97h-8.36c.2-2.32,1.93-3.97,4.19-3.97h0ZM132.89,30.93c-7.83,0-12.69,3.61-12.94,9.36h8.91c.14-1.37,1.45-2.48,3.49-2.48,1.88,0,3.24.97,3.24,2.77v1.31l-5.89.36c-7.16.45-11.13,3.24-11.13,8.39,0,4.84,4.16,8.21,9.05,8.21,3.11,0,6.37-1.37,7.79-4h.19v3.61h9.73v-18.38c0-5.43-4.98-9.16-12.43-9.16h0ZM135.59,48.96c0,1.98-2.04,3.22-4.25,3.22-1.76,0-2.94-.86-2.94-2.32,0-1.31,1.07-2.21,2.96-2.35,0,0,2.52-.08,3.75-.36.3-.06.48-.2.48-.2v2.01ZM207.92,30.93c-7.83,0-12.69,3.61-12.94,9.36h8.91c.14-1.37,1.45-2.48,3.5-2.48,1.87,0,3.22.97,3.22,2.77v1.31l-5.89.36c-7.16.45-11.13,3.24-11.13,8.39,0,4.84,4.16,8.21,9.05,8.21,3.11,0,6.37-1.37,7.79-4h.19v3.61h9.73v-18.38c0-5.43-4.98-9.16-12.43-9.16h0ZM210.62,48.96c0,1.98-2.04,3.22-4.25,3.22-1.74,0-2.94-.86-2.94-2.32,0-1.31,1.07-2.21,2.97-2.35,0,0,2.51-.08,3.75-.36.28-.06.47-.2.47-.2v2.01ZM165.24,31.07c-4.08,0-6.88,2.04-8.24,5.81h-.2v-5.28h-9.73v26.85h9.98v-15c0-2.51,1.43-4.33,3.78-4.33,2.51,0,3.77,1.65,3.77,4.34v14.98h9.98v-17.19c0-6.43-3.32-10.18-9.34-10.18h0ZM108.23,37.2l-4.81-.84c-3.33-.58-4.77-1.45-4.77-3.13s1.7-2.87,4.41-2.87,4.94,1.29,5,3.47h9.42c-.06-6.81-5.28-11.09-14.62-11.09-8.36,0-14.45,4.47-14.45,11.57,0,5.5,3.5,9.2,9.95,10.31l4.64.84c3.77.67,5.06,1.39,5.06,3.01,0,1.71-1.9,2.94-4.98,2.94-2.77,0-5.2-1.31-5.5-3.3h-9.75c.02,7.01,5.64,10.95,15.06,10.95s15.34-4.58,15.34-11.76c0-5.68-3.19-8.92-10-10.11h0Z"/>
        <path class="cls-6" d="M273.36,82.85h2.35l-4.3-11.94h-2.73l-4.31,11.94h2.37l1.01-2.94h4.59l1.01,2.94ZM268.34,78.17l1.65-4.81h.09l1.65,4.81h-3.39ZM260.39,82.85h2.21v-11.94h-2.21v11.94ZM251.29,73.17c.51-.33,1.11-.48,1.76-.48.37,0,.73.05,1.06.14.31.11.61.25.86.44.26.2.47.44.64.72.17.28.3.59.36.95h2.23c-.09-.67-.28-1.25-.58-1.78-.3-.51-.69-.95-1.14-1.31-.45-.37-.98-.64-1.56-.83-.59-.19-1.21-.28-1.9-.28-1.06,0-2.02.25-2.87.73-.84.48-1.51,1.18-1.99,2.1-.48.92-.73,2.01-.73,3.3s.23,2.38.73,3.3c.48.92,1.14,1.62,1.98,2.1.86.48,1.81.73,2.88.73.73,0,1.39-.11,1.99-.33.59-.2,1.11-.5,1.56-.89.44-.37.81-.81,1.07-1.31.28-.5.47-1.03.55-1.6h-2.23c-.06.34-.19.65-.37.93-.17.26-.39.5-.64.69-.26.19-.55.33-.87.42-.31.09-.67.14-1.03.14-.65,0-1.25-.16-1.76-.47-.51-.33-.9-.79-1.2-1.42-.3-.62-.44-1.4-.44-2.3s.14-1.67.44-2.29c.28-.62.69-1.09,1.2-1.42h0ZM242.98,79.05h-.11l-5.75-8.14h-1.99v11.94h2.21v-8.13h.11l5.75,8.13h1.98v-11.94h-2.2v8.14ZM230.35,82.85h2.21v-11.94h-2.21v11.94ZM222.97,80.31h-.12l-3.18-9.41h-2.43l4.3,11.94h2.74l4.3-11.94h-2.43l-3.18,9.41ZM213.03,71.48c-.84-.48-1.81-.73-2.87-.73s-2.04.25-2.88.73c-.84.48-1.51,1.18-1.99,2.1-.5.92-.75,2.01-.75,3.3s.25,2.38.75,3.3c.48.9,1.15,1.6,1.99,2.1.84.48,1.81.73,2.88.73s2.02-.25,2.87-.73c.84-.48,1.51-1.18,2.01-2.1.48-.92.73-2.02.73-3.3s-.25-2.38-.73-3.3c-.5-.92-1.17-1.62-2.01-2.1h0ZM213.11,79.17c-.28.62-.69,1.11-1.2,1.42-.5.33-1.09.48-1.74.48s-1.26-.16-1.76-.48c-.51-.31-.92-.79-1.2-1.42-.3-.62-.44-1.39-.44-2.29s.14-1.67.44-2.29c.28-.62.69-1.11,1.2-1.42.5-.33,1.09-.48,1.76-.48s1.25.16,1.74.48c.51.31.92.79,1.2,1.42.3.62.44,1.39.44,2.29s-.14,1.67-.44,2.29h0ZM200.7,78.02c.64-.3,1.12-.73,1.46-1.31.33-.55.48-1.21.48-1.98s-.16-1.43-.48-2.01-.81-1.01-1.45-1.34c-.64-.31-1.43-.48-2.37-.48h-4.58v11.94h2.21v-4.38h2.26l2.4,4.38h2.46l-2.65-4.73c.08-.03.17-.06.25-.09h0ZM195.98,72.71h2.02c.56,0,1.01.08,1.35.25.36.16.61.39.78.69.17.3.26.65.26,1.09s-.09.78-.25,1.06c-.17.3-.44.51-.78.67-.36.14-.81.22-1.35.22h-2.04v-3.97ZM189.73,71.42c-.64-.34-1.42-.51-2.35-.51h-4.58v11.94h2.21v-4.03h2.34c.93,0,1.73-.17,2.37-.51.65-.33,1.14-.79,1.46-1.4.33-.59.5-1.26.5-2.04s-.17-1.43-.5-2.02c-.33-.61-.81-1.07-1.45-1.42h0ZM189.17,75.99c-.17.31-.42.58-.78.76-.34.19-.79.28-1.34.28h-2.04v-4.33h2.02c.55,0,1,.09,1.35.28.34.17.61.44.78.75.17.33.25.7.25,1.12s-.08.81-.25,1.14h0Z"/>
        <path class="cls-27" d="M75.02,52.9h-30.13c-.55,0-.99-.45-.99-1v-9.09c0-.55.44-.99.99-.99h30.13c.55,0,.99.44.99.99v9.09c0,.55-.44,1-.99,1h0ZM58.64,71.35h-13.74c-.55,0-.99-.44-.99-.99v-9.09c0-.55.44-1,.99-1h13.74c.55,0,.99.45.99,1v9.09c0,.55-.44.99-.99.99h0ZM38.8,41.82h-.56c-2.67,0-5.33.33-7.95,1.07-3.36.97-6.59,2.51-9.7,4.7-1.42.99-2.86,1.9-4.33,2.72-3.3,1.85-6.76,2.71-10.27,2.92-1.45.08-3.48,0-5.12-.23-.47-.06-.88.31-.88.78v9.42c0,.4.31.73.71.78,1.5.14,3.44.3,4.77.26,2.06-.07,4.12-.38,6.16-.8,3.5-.71,6.85-2.34,10.09-4.44,1.98-1.29,3.94-2.64,5.98-3.69,3.62-1.85,7.37-2.57,11.2-2.44h.01c.52.02.95-.38.95-.91v-9.06c0-.58-.48-1.07-1.07-1.07h0ZM38.8,60.27h-.56c-2.67,0-5.33.33-7.95,1.07-3.36.97-6.59,2.51-9.7,4.7-1.42.99-2.86,1.9-4.33,2.72-3.3,1.86-6.76,2.72-10.27,2.92-1.45.09-3.48,0-5.12-.22-.47-.07-.88.3-.88.77v9.42c0,.41.31.74.71.78,1.5.14,3.44.3,4.77.26,2.06-.07,4.12-.38,6.16-.79,3.5-.72,6.85-2.35,10.09-4.45,1.98-1.28,3.94-2.64,5.98-3.69,3.62-1.85,7.37-2.57,11.2-2.43h.01c.52.01.95-.4.95-.92v-9.05c0-.59-.48-1.08-1.07-1.08h0ZM75.02,34.43h-30.13c-.55,0-.99-.44-.99-.99v-9.09c0-.55.44-.99.99-.99h30.13c.55,0,.99.44.99.99v9.09c0,.55-.44.99-.99.99h0ZM38.8,23.36h-.56c-2.67,0-5.33.33-7.95,1.07-3.36.97-6.59,2.51-9.7,4.7-1.42.99-2.86,1.9-4.33,2.72-3.3,1.85-6.76,2.71-10.27,2.92-1.45.08-3.48,0-5.12-.23-.47-.06-.88.3-.88.78v9.42c0,.4.31.73.71.78,1.5.14,3.44.3,4.77.26,2.06-.08,4.12-.38,6.16-.8,3.5-.71,6.85-2.34,10.09-4.44,1.98-1.29,3.94-2.65,5.98-3.69,3.62-1.85,7.37-2.57,11.2-2.44h.01c.52.02.95-.4.95-.91v-9.06c0-.59-.48-1.07-1.07-1.07h0Z"/>
      </g>
      <rect class="cls-6" x="301.95" width="1.67" height="103.91"/>
    </g>
  </g>
</svg>